<svg width="186" height="30" viewBox="0 0 186 30" fill="none" xmlns="http://www.w3.org/2000/svg">
<path d="M185.827 15.214L180.379 15.1431V18.9194C180.379 23.7771 179.546 27.3407 179.147 28.4044C178.886 28.7058 178.279 28.8831 177.915 28.7767C177.689 27.9257 177.221 25.2841 177.221 20.8873V3.90295C177.221 3.19379 175.26 1.72228 174.531 1.49181C174.34 1.42089 174.965 0.676273 175.156 0.676273C176.648 0.676273 180.57 1.59818 180.483 2.30734C180.413 2.78602 180.379 3.35335 180.379 3.97386V13.6893L184.509 12.0228C184.873 11.881 186.504 15.214 185.845 15.214M174.514 17.0578C175.086 17.8734 173.542 21.3305 172.987 20.515C172.188 19.3626 170.002 15.9586 168.041 13.6893C165.421 17.4302 162.159 20.4441 159.226 22.0397C158.862 22.0042 158.428 21.4546 158.428 21.1178C162.055 17.8202 166.15 12.0405 167.868 6.77504C167.972 6.47365 166.74 5.55174 166.202 5.21489C166.028 5.10852 166.774 4.54119 166.965 4.54119C167.954 4.54119 170.696 5.69357 171.355 6.17226C171.72 6.43819 171.755 6.61548 171.581 7.0587C170.852 8.99116 169.88 10.835 168.787 12.537C171.251 14.2744 173.976 16.2778 174.514 17.0578ZM156.901 15.5332L151.417 15.4268V18.9194C151.417 23.7771 150.654 27.3407 150.22 28.4044C149.96 28.7058 149.353 28.8831 149.023 28.7767C148.763 27.9257 148.329 25.2841 148.329 20.8873V3.90295C148.329 3.19379 146.368 1.7932 145.639 1.49181C145.466 1.42089 146.073 0.676273 146.264 0.676273C147.756 0.676273 151.591 1.59818 151.522 2.30734C151.487 2.78602 151.417 3.35335 151.417 3.97386V13.9907L155.565 12.3597C155.964 12.1824 157.595 15.5154 156.901 15.5154M139.08 17.1997C140.607 17.1997 141.735 16.1182 141.735 14.4517C141.735 12.7852 140.676 11.6682 139.08 11.6682C137.483 11.6682 136.425 12.7852 136.425 14.4517C136.425 16.1182 137.483 17.1997 139.08 17.1997ZM133.891 3.03423C133.857 2.8924 134.03 2.43144 134.221 2.44917C135.314 2.66192 136.425 2.85694 137.813 3.03423L141.197 3.40654C141.492 3.44199 142.793 5.26808 141.926 5.26808H136.807C135.939 5.26808 133.944 3.33562 133.874 3.03423M130.49 7.16508C130.456 7.0587 130.664 6.6864 130.751 6.72185C131.323 6.9346 133.354 6.98779 135.28 6.95233L142.203 6.88141C144.199 6.84596 144.789 5.8354 145.101 5.8354C145.431 5.8354 146.698 7.62603 146.698 8.45929C146.698 8.60112 146.559 8.68977 146.333 8.68977C146.003 8.68977 144.077 8.5834 142.55 8.5834L135.106 8.61885C133.909 8.61885 133.111 8.88479 132.746 9.22164C131.809 8.9557 130.647 7.51966 130.525 7.14735M147.027 21.0646C144.043 22.4652 138.316 23.2807 134.395 23.7771C133.336 23.919 132.694 24.114 132.069 24.4863C131.063 24.2204 129.605 22.7134 129.467 22.1461C129.501 21.9688 129.64 21.8092 129.727 21.7028C130.82 21.7028 132.417 21.7383 134.343 21.6319C135.54 21.561 136.668 21.4901 137.692 21.4014L137.501 18.4762C134.967 18.0329 133.406 16.5082 133.406 14.3985C133.406 12.0937 135.366 10.5336 138.455 10.3563C138.49 10.2145 138.525 10.1258 138.525 9.98398C138.525 9.71805 138.455 9.39893 138.091 9.13299C138.091 8.49475 140.086 9.13299 140.086 9.46984C140.086 9.61168 139.913 10.0194 139.826 10.3563C142.845 10.569 144.754 12.1292 144.754 14.3985C144.754 16.5082 143.123 18.0329 140.624 18.4762L140.485 21.1178C143.644 20.7455 145.778 20.2313 147.201 19.7527C147.496 19.6463 147.374 20.8696 147.01 21.0469M109.216 4.52346L109.182 10.1967H116.921L117.112 4.52346H109.199H109.216ZM104.201 3.2647C104.167 3.08741 104.635 2.52009 104.861 2.52009C105.433 2.52009 107.412 2.591 108.713 2.82148H116.088C117.025 2.82148 117.511 2.67965 117.875 2.3428C118.274 2.20096 120.86 2.60873 120.808 3.05196L119.715 9.87761C120.183 10.3208 120.808 11.2073 120.808 11.686C120.808 11.8278 120.669 11.9164 120.443 11.9164C120.114 11.9164 118.882 11.881 117.025 11.881H108.852C108.644 12.2533 108.383 12.5901 108.088 12.9447C107.793 13.2461 107.255 13.3879 106.856 13.2816C106.527 12.466 106.249 10.9059 106.023 8.08698L105.728 4.55892C105.694 4.22207 104.757 3.47745 104.201 3.2647ZM122.612 27.3761C122.612 27.5179 122.508 27.6066 122.248 27.6066H118.83L108.661 27.642C105.833 27.642 105.277 26.6492 105.277 24.7168V21.8269C105.277 21.3128 104.219 20.4264 103.611 20.3377C103.421 20.3022 104.08 19.4513 104.34 19.4513C105.503 19.4513 107.238 19.7172 108.106 20.054C108.279 20.125 108.54 20.2313 108.47 20.6036C108.401 21.0469 108.401 21.6851 108.401 22.2347V24.7522C108.401 25.7982 108.765 25.9401 109.667 25.9401L118.205 25.9046C120.01 25.9046 120.6 24.8763 120.825 24.8763C121.294 24.8763 122.612 26.5783 122.612 27.3584M125.84 16.3841C125.84 16.5614 125.701 16.6501 125.476 16.6501H114.943V18.618C114.943 20.6214 114.214 22.3588 113.711 23.1389C113.45 23.4403 112.878 23.5821 112.513 23.4757C112.218 22.5538 111.784 21.3305 111.784 19.0967V16.6501H104.705C103.507 16.6501 102.709 16.9869 102.345 17.3238C101.408 17.0578 99.5163 15.5509 99.5163 15.214C99.5163 15.0722 99.6898 14.6999 99.7766 14.7354C100.349 14.9481 102.379 14.9658 104.306 14.9658L120.6 14.9304C122.664 14.9304 123.359 13.7425 123.619 13.7425C123.983 13.7425 125.84 15.5509 125.84 16.3664M79.4221 7.78559C79.4221 9.96626 80.8103 11.42 82.91 11.42C85.0096 11.42 86.6061 9.96626 86.6061 7.78559C86.6061 5.60493 85.1138 4.15115 82.9447 4.15115C80.7756 4.15115 79.4221 5.62266 79.4221 7.78559ZM76.264 7.89197C76.264 4.84258 78.6586 2.80375 82.3547 2.591C82.3894 2.48463 82.4241 2.39598 82.4241 2.28961C82.4241 1.98822 82.3547 1.65137 81.9209 1.33225C81.9209 0.658544 84.142 1.33224 84.142 1.70455C84.142 1.84639 83.9685 2.25415 83.8817 2.591C87.4043 2.85694 89.7295 4.89577 89.7295 7.89197C89.7295 11.0477 87.0399 13.122 83.0141 13.122C78.9883 13.122 76.264 11.0477 76.264 7.89197ZM96.1499 17.1642C96.1499 17.3061 96.0111 17.3947 95.7855 17.3947H88.5669V19.0258C88.5669 23.6176 87.7687 27.1811 87.3349 28.2271C87.0746 28.5285 86.4672 28.6703 86.1376 28.5994C85.8773 27.7484 85.4087 25.1068 85.4087 20.9937V17.3947L80.3245 17.4302V18.4584C80.3245 23.0148 79.5263 26.5783 79.1272 27.6243C78.8669 27.9257 78.2595 28.0675 77.8951 27.9966C77.6696 27.1456 77.201 24.504 77.201 20.4264V17.4302H75.0146C73.8173 17.4302 73.0191 17.767 72.6547 18.1039C71.7177 17.8379 69.8262 16.331 69.8262 15.9586C69.8262 15.8523 69.9998 15.48 70.0865 15.5154C70.6592 15.7104 72.6894 15.7459 74.6155 15.7459L90.9095 15.675C92.9744 15.675 93.6685 14.4871 93.9288 14.4871C94.2932 14.4871 96.1499 16.3132 96.1499 17.1288M49.9924 6.42046C49.9924 8.282 51.3632 9.61168 53.4108 9.61168C55.4584 9.61168 56.8293 8.282 56.8293 6.42046C56.8293 4.55892 55.4584 3.30016 53.4108 3.30016C51.3632 3.30016 49.9924 4.59438 49.9924 6.42046ZM46.8343 6.56229C46.8343 3.88522 49.1248 1.93503 52.682 1.70455C52.7167 1.52726 52.7861 1.40316 52.7861 1.22587C52.7861 0.924479 52.682 0.605357 52.2829 0.303964C52.2829 -0.405195 54.504 0.303964 54.504 0.640815C54.504 0.853563 54.2785 1.31452 54.1396 1.68682C57.6622 1.9173 60.0221 3.86749 60.0221 6.54456C60.0221 9.36347 57.3325 11.3668 53.4108 11.3668C49.4892 11.3668 46.8343 9.36347 46.8343 6.54456M62.5903 27.9257C62.5903 28.103 62.4515 28.1562 62.2259 28.1562H49.2983C47.0772 28.1562 46.2963 27.3761 46.2443 25.6032L46.1749 23.3339C46.1749 22.9971 45.3072 22.5538 44.752 22.3056C44.7173 22.1283 45.2205 21.561 45.4808 21.561C46.1055 21.561 48.4827 21.7028 49.333 22.0042H57.7489L57.7836 19.2562H49.3677C48.3439 19.2562 47.6672 19.5222 47.3028 19.8768C46.1055 19.6995 45.1337 18.1039 45.1164 17.8734C45.0817 17.6961 45.2552 17.3592 45.4114 17.3947C46.4699 17.5897 47.806 17.5897 49.7321 17.5897H56.621C57.5581 17.5897 58.0439 17.4833 58.4083 17.111C58.8074 17.0756 61.4624 17.377 61.3756 17.8202L60.5427 21.8269C61.1674 22.3056 61.5665 23.1212 61.5665 23.3162C61.5665 23.4935 61.4624 23.6176 61.3062 23.6176C61.0112 23.6176 59.1198 23.5821 57.5754 23.5821H49.333V25.0713C49.333 26.2237 49.6627 26.4542 51.155 26.4542H58.443C60.508 26.4542 60.803 25.5678 61.0286 25.5678C61.4971 25.5678 62.5903 27.1634 62.5903 27.8725M66.3905 14.7885C66.3905 14.9304 66.2516 15.019 66.0261 15.019H61.3409L45.2725 15.0545C44.1099 15.0545 43.3117 15.3913 42.9473 15.6927C41.9756 15.4268 40.2577 13.9553 40.1189 13.583C40.0842 13.4766 40.2924 13.1043 40.3791 13.1397C40.9518 13.3525 42.9647 13.3879 44.9081 13.3879L61.1674 13.317C63.1976 13.317 63.8917 12.1292 64.1867 12.1292C64.5511 12.1292 66.3731 13.9553 66.3731 14.7708M29.6727 14.7176C29.6727 15.019 29.4471 15.019 28.6489 15.2672C28.3192 15.3736 28.1457 15.9055 27.8854 16.7565C27.3128 18.5471 25.4907 21.4369 21.7079 21.4369C17.9251 21.4369 15.9295 18.1393 15.7907 17.962C15.5999 17.6961 15.2875 17.4479 15.0272 17.4479C14.8537 17.4479 14.7322 17.5188 14.6281 17.5897C13.2573 18.5471 11.765 19.6285 11.765 22.1106C11.765 23.7417 13.1011 25.6032 15.3569 25.6032C17.283 25.6032 18.5498 23.7417 18.9489 22.4475C19.0877 22.0042 19.053 21.8269 19.2786 21.8269C19.5736 21.8269 19.6777 22.5006 20.0768 22.5006C20.4065 22.5006 20.3024 22.3234 20.7362 22.3234C21.1353 22.3234 21.2394 22.8729 21.5691 22.8729C22.0376 22.8729 22.6623 22.4652 22.9746 22.4652C23.0788 22.4652 23.2349 22.4652 23.2349 22.5716C23.2349 22.7488 22.9399 22.9084 22.6623 23.1566C22.0897 23.6708 21.6732 23.9721 21.2394 24.7168C19.7124 27.3584 17.9424 27.8371 17.0401 28.1207C16.7104 28.2271 16.3807 28.3867 16.2419 28.7058C15.7387 29.8582 15.4437 30 15.3049 30C15.1313 30 15.0793 29.805 15.0446 29.3618C15.0099 28.8831 14.7496 28.3335 13.8473 28.1739C11.5567 27.7307 8.72828 25.355 8.72828 21.6142C8.72828 18.2457 11.227 16.9337 12.4938 15.6395C12.6673 15.4622 12.7888 15.2672 12.7888 14.9658V14.8595C12.7888 14.6999 12.754 14.4871 12.5458 14.2212C11.2791 12.5901 10.3247 11.5087 8.58946 11.5087C6.69805 11.5087 5.03221 13.1043 5.03221 15.4091C5.03221 17.8911 6.22953 18.7421 7.42685 19.0435C7.82595 19.1499 7.96477 19.1853 7.96477 19.3094C7.96477 19.5754 7.70449 19.5222 7.70449 19.9299C7.70449 20.2313 7.93007 20.1959 7.93007 20.6746C7.93007 21.0114 7.63508 21.1178 7.63508 21.6319C7.63508 22.0397 7.82595 22.1815 7.82595 22.412C7.82595 22.7134 7.99948 22.6779 7.99948 23.3339C7.99948 23.5112 8.06889 23.6353 7.93007 23.6353C7.79125 23.6353 7.63508 23.4048 7.42685 23.0857C6.95833 22.3765 6.45511 21.9333 6.09071 21.6497C3.19285 19.5044 3.08874 18.5648 2.35993 17.0933C2.18641 16.7565 2.13435 16.1714 1.7873 16.0118C0.728803 15.4622 0 15.3027 0 14.4162C0 14.0085 0.468516 14.4162 1.19732 14.4162C1.59643 14.4162 2.06494 14.4871 2.29052 13.6362C2.79374 11.8278 4.87604 8.93798 8.5374 8.93798C12.4244 8.93798 14.3505 12.2356 14.4893 12.4129C14.7496 12.7852 14.9925 12.927 15.2528 12.927C15.4263 12.927 15.5478 12.927 15.8428 12.6611C18.3068 10.4272 18.4977 9.43439 18.4977 8.14017C18.4977 6.50911 17.231 4.61211 14.9752 4.61211C12.7193 4.61211 11.6435 6.43819 11.3485 7.80332C11.2444 8.24655 11.175 8.47702 10.9841 8.47702C10.6891 8.47702 10.6891 8.06926 10.3594 8.06926C9.82149 8.06926 9.76943 8.29973 9.49179 8.29973C9.12739 8.29973 9.12739 7.62603 8.58946 7.62603C8.45064 7.62603 8.15565 7.80332 7.96477 7.80332C7.46155 7.80332 7.42685 7.9097 7.20127 7.9097C6.94098 7.9097 6.66334 7.76786 6.66334 7.57284C6.66334 7.37783 6.83686 7.23599 7.35744 6.97006C8.05154 6.59775 8.69358 6.33182 9.02327 5.56947C10.0471 3.22925 12.3202 2.48463 13.1879 2.14778C13.5176 2.00595 13.6911 1.88184 13.8473 1.56272C14.5414 0.268506 14.8537 0.126675 15.0446 0.126675C15.2354 0.126675 15.2181 0.463525 15.3049 0.871292C15.409 1.34997 15.409 1.72228 16.1725 1.9173C18.3415 2.50236 21.517 4.54119 21.517 8.26427C21.517 11.9874 17.9251 14.3453 17.7516 14.4871C17.3524 14.7885 17.2136 15.0367 17.2136 15.2672C17.2136 15.4445 17.3177 15.6395 17.4219 15.8523C18.2895 17.6252 19.7818 18.7776 21.517 18.7776C23.582 18.7776 25.1784 16.8096 25.1784 14.7708C25.1784 12.732 23.8423 11.5087 22.6796 11.1364C22.2458 10.9945 22.055 10.9945 22.055 10.7641C22.055 10.4981 22.35 10.5868 22.35 10.179C22.35 9.87761 22.2111 9.94853 22.2111 9.46984C22.2111 9.13299 22.6102 9.02662 22.6102 8.51248C22.6102 8.10471 22.4194 7.96288 22.4194 7.73241C22.4194 7.43101 22.3152 7.46647 22.3152 6.8105C22.3152 6.63321 22.2458 6.50911 22.3847 6.50911C22.5582 6.50911 22.7144 6.73958 22.9226 7.0587C23.3911 7.76786 23.7555 8.31746 24.1199 8.54794C26.7401 10.2499 27.3128 11.3314 27.9201 12.8561C28.0589 13.1929 28.1804 13.778 28.5795 14.0085C28.9092 14.2212 29.638 14.4517 29.638 14.7176" fill="#1D1D1D"/>
</svg>
