<svg width="125" height="41" viewBox="0 0 125 41" fill="none" xmlns="http://www.w3.org/2000/svg">
<g clip-path="url(#clip0_26_11)">
<path d="M99.5068 10.0265C99.5068 10.3753 99.5581 10.7367 99.699 11.0792C100.32 12.6012 101.902 13.5398 103.914 12.7471C104.394 12.5568 117.698 7.24872 117.698 7.24872C117.698 7.24872 112.458 20.4017 112.26 20.89C111.498 22.7735 112.414 24.4795 113.97 25.0503C114.316 25.1771 114.675 25.2405 115.027 25.2342C116.302 25.2278 117.423 24.4858 117.973 23.0019C118.057 22.7799 124.609 4.96566 124.75 4.54076C124.833 4.28708 124.987 3.69095 124.987 3.27873C124.987 2.39722 124.661 1.56643 124.026 0.938592C123.405 0.317092 122.572 0 121.695 0C121.266 0 120.92 0.0761021 120.395 0.24099C120.081 0.342459 103.19 6.5638 101.749 7.09652C100.308 7.62923 99.5068 8.77077 99.5132 10.0265" fill="#ED1C24"/>
<path d="M67.8581 20.0719V19.6914H57.616V22.2852H63.5665C62.0164 27.1431 56.4758 29.9969 56.4758 29.9969L57.9555 32.0453C57.9555 32.0453 67.8581 27.9992 67.8581 20.0656V20.0719Z" fill="#454B52"/>
<path d="M64.6233 37.2962V32.2544H60.9915V37.9367C60.9915 39.7124 62.4198 40.9935 64.3799 40.9935H75.634V38.406H65.8915C65.0076 38.406 64.6361 38.0572 64.6169 37.2962H64.6233Z" fill="#454B52"/>
<path d="M67.4482 24.4729V27.0667H71.7718V33.3198H75.4037V19.4185H71.7718V24.4729H67.4482Z" fill="#454B52"/>
<path d="M98.7445 29.838H102.376V19.3105H98.7445V22.5893H94.959V25.1514H98.7445V29.838Z" fill="#454B52"/>
<path d="M17.2817 32.0581H3.45898V37.937C3.45898 39.7127 4.88737 40.9938 6.8474 40.9938H18.0888V32.8572C18.0888 32.4132 17.7237 32.0581 17.2817 32.0581ZM14.4569 38.4063H8.35906C7.47513 38.4063 7.09721 38.0638 7.0844 37.2965V34.6583H14.4569V38.4063Z" fill="#454B52"/>
<path d="M18.3321 19.7294V19.6089H3.26031V22.2027H14.5337C14.5337 22.3739 14.5337 22.5896 14.5337 22.7988C14.5337 25.2087 14.412 26.7942 14.3479 27.4411H0V30.0349H22.1048V27.4411H17.5826C17.8004 26.6293 18.3385 24.1179 18.3385 19.7294H18.3321Z" fill="#454B52"/>
<path d="M40.9043 33.3643C43.9212 32.7111 46.1503 30.4724 46.1503 27.8215C46.1503 26.3946 45.5033 25.0882 44.4401 24.0798H48.2961V21.486H40.9043V19.0381H37.2789V21.486H29.8872V24.0798H33.7432C32.6799 25.0882 32.0329 26.3883 32.0329 27.8215C32.0329 30.4788 34.262 32.7111 37.2853 33.3643V35.9898H28.0488V38.5836H50.1472V35.9898H40.9107V33.3643H40.9043ZM35.7608 27.7391C35.7608 25.9697 37.2533 24.5238 39.0852 24.5238C40.9171 24.5238 42.4096 25.9634 42.4096 27.7391C42.4096 29.5148 40.9171 30.9544 39.0852 30.9544C37.2533 30.9544 35.7608 29.5148 35.7608 27.7391Z" fill="#454B52"/>
<path d="M91.8011 29.6163H95.3176C95.1703 28.7728 93.8828 21.9617 90.5329 19.6025H86.4783L83.3589 29.6988H87.0035L89.0789 22.431C90.8275 24.4604 91.6794 28.9504 91.7947 29.6163H91.8011Z" fill="#454B52"/>
<path d="M92.5251 38.495C91.6027 38.495 91.4362 38.2603 91.4362 37.4866V37.1632H102.383V31.7092C102.383 31.2399 102.037 30.8721 101.544 30.8721H87.8684V33.3708H98.9048V34.7089H87.9645V37.9369C87.9645 39.8077 89.3224 40.9936 91.3529 40.9936H102.62V38.495H92.5251Z" fill="#454B52"/>
</g>
<defs>
<clipPath id="clip0_26_11">
<rect width="125" height="41" fill="white"/>
</clipPath>
</defs>
</svg>
