<svg width="152" height="50" viewBox="0 0 152 50" fill="none" xmlns="http://www.w3.org/2000/svg">
<g clip-path="url(#clip0_44_72)">
<path d="M44.4643 38.0186C43.4257 37.6506 43.2289 37.4053 43.2289 36.9832C43.2289 36.5611 43.5277 36.2256 44.2384 36.2256C44.7595 36.2256 45.1057 36.3951 45.4847 36.7054L45.8564 36.2544C45.4191 35.9081 44.9745 35.7061 44.2748 35.7061C43.3054 35.7061 42.6495 36.1967 42.6495 37.0193C42.6495 37.7625 43.0285 38.1233 44.1509 38.5201C45.1021 38.8592 45.39 39.1298 45.39 39.606C45.39 40.1508 44.9599 40.49 44.2712 40.49C43.7355 40.49 43.2836 40.2446 42.89 39.873L42.5073 40.2987C42.9155 40.71 43.5459 41.0131 44.2529 41.0131C45.3353 41.0131 45.9731 40.3853 45.9731 39.5808C45.9731 38.7763 45.6196 38.4335 44.468 38.0222L44.4643 38.0186Z" fill="white"/>
<path d="M48.3274 36.9935C47.8208 36.9935 47.3616 37.1162 47.0191 37.3002L47.2304 37.7476C47.5475 37.5636 47.8828 37.4517 48.2909 37.4517C48.8594 37.4517 49.1364 37.7295 49.1364 38.3068V38.7614C48.9068 38.6351 48.5533 38.5377 48.1634 38.5377C47.3944 38.5377 46.6729 38.9057 46.6729 39.7715C46.6729 40.7023 47.3106 41.0054 47.9156 41.0054C48.4768 41.0054 48.8594 40.7456 49.1364 40.4534V40.926H49.6903V38.2346C49.6903 37.3399 49.1655 36.9863 48.3274 36.9863V36.9935ZM49.1328 39.9844C48.8959 40.3055 48.5169 40.5616 48.014 40.5616C47.5365 40.5616 47.2158 40.3127 47.2158 39.7391C47.2158 39.2556 47.5584 38.9814 48.1306 38.9814C48.6043 38.9814 48.8777 39.068 49.1328 39.2051V39.988V39.9844Z" fill="white"/>
<path d="M55.2806 38.6718V40.9302H55.8345V38.5816C55.8345 37.4559 55.3389 36.9941 54.5444 36.9941C53.9103 36.9941 53.5933 37.2864 53.3637 37.6544C53.1778 37.2864 52.8462 36.9941 52.2959 36.9941C51.8367 36.9941 51.5087 37.2142 51.3083 37.5461V37.0771H50.7471V40.9338H51.3083V38.6754C51.3083 37.8203 51.6399 37.4704 52.1756 37.4704C52.7113 37.4704 53.0138 37.7915 53.0138 38.6754V40.9338H53.5714V38.6754C53.5714 37.8203 53.9103 37.4704 54.4387 37.4704C55 37.4704 55.2769 37.7915 55.2769 38.6754L55.2806 38.6718Z" fill="white"/>
<path d="M58.0684 38.6859C57.4088 38.39 57.212 38.2638 57.212 37.9355C57.212 37.6541 57.4452 37.4592 57.857 37.4592C58.2688 37.4592 58.5239 37.5675 58.8264 37.8056L59.1362 37.3979C58.841 37.1562 58.4255 36.9902 57.8935 36.9902C57.1828 36.9902 56.6763 37.3871 56.6763 37.9715C56.6763 38.5885 57.0006 38.823 57.7841 39.1549C58.4729 39.4471 58.7025 39.6239 58.7025 39.9414C58.7025 40.3166 58.451 40.5367 57.9153 40.5367C57.529 40.5367 57.1646 40.3815 56.8548 40.111L56.5269 40.5114C56.8986 40.8072 57.365 41.0057 57.9008 41.0057C58.575 41.0057 59.2346 40.6774 59.2346 39.9161C59.2346 39.227 58.8045 39.0142 58.0647 38.6823L58.0684 38.6859Z" fill="white"/>
<path d="M62.4854 39.3281C62.4854 40.1723 62.059 40.5295 61.5233 40.5295C60.8965 40.5295 60.6013 40.1579 60.6013 39.3281V37.0732H60.0474V39.4219C60.0474 40.5295 60.5904 41.0093 61.4103 41.0093C61.9023 41.0093 62.2631 40.782 62.4854 40.4573V40.9299H63.043V37.0732H62.4854V39.3281Z" fill="white"/>
<path d="M66.9787 40.9302V38.5816C66.9787 37.4704 66.4357 36.9941 65.6121 36.9941C65.1238 36.9941 64.7594 37.2214 64.5407 37.5461V37.0771H63.9795V40.9338H64.5407V38.6754C64.5407 37.8311 64.9598 37.4704 65.4992 37.4704C66.1223 37.4704 66.4212 37.8456 66.4212 38.6754V40.9338H66.9787V40.9302Z" fill="white"/>
<path d="M68.7316 41.9257L68.9101 42.3442C70.3569 42.3009 70.8817 41.7417 70.8817 40.58V37.0696H70.3241V37.5025C70.0508 37.1923 69.7155 36.9902 69.2272 36.9902C68.4109 36.9902 67.7549 37.6937 67.7549 39.0611C67.7549 40.4284 68.3744 41.0057 69.1506 41.0057C69.6791 41.0057 70.0508 40.7459 70.3241 40.4537V40.6521C70.3241 41.5504 70.0289 41.8896 68.7279 41.922L68.7316 41.9257ZM69.2964 40.5294C68.6805 40.5294 68.3088 40.0244 68.3088 39.0539C68.3088 38.0184 68.6259 37.4665 69.2746 37.4665C69.7374 37.4665 70.1127 37.7226 70.3278 38.0437V39.9739C70.0544 40.313 69.7119 40.5294 69.2964 40.5294Z" fill="white"/>
<path d="M77.0259 38.3214C77.0259 36.5572 76.0201 35.7852 74.6571 35.7852H73.2832V40.9298H74.5551C75.9435 40.9298 77.0259 40.1866 77.0259 38.3214ZM73.8626 36.3047H74.6134C75.8087 36.3047 76.4465 37.0262 76.4465 38.3395C76.4465 39.8186 75.7467 40.4067 74.6279 40.4067H73.8626V36.3047Z" fill="white"/>
<path d="M78.5092 37.55V37.0738H77.9517V40.9305H78.5092V38.6648C78.5092 37.9288 78.8154 37.4995 79.3584 37.4995C79.6171 37.4995 79.7847 37.5572 79.9414 37.6474L80.0799 37.0918C79.9487 37.0341 79.7629 36.998 79.4713 36.998C79.0522 36.998 78.6842 37.247 78.5092 37.5536V37.55Z" fill="white"/>
<path d="M83.4107 40.5625L83.1483 40.1657C82.7912 40.4002 82.5252 40.5337 82.0696 40.5337C81.4355 40.5337 81.0383 40.0105 80.9873 39.1916H83.582C83.6002 39.1014 83.6075 39.022 83.6075 38.8921C83.6075 37.7918 83.0536 36.998 82.0368 36.998C81.1112 36.998 80.4297 37.7593 80.4297 38.9823C80.4297 40.5012 81.297 41.0135 82.0113 41.0135C82.598 41.0135 82.9406 40.8584 83.4107 40.5661V40.5625ZM82.0368 37.4707C82.7183 37.4707 83.0463 37.9938 83.09 38.7406H80.9873C81.0529 37.8783 81.4574 37.4707 82.0368 37.4707Z" fill="white"/>
<path d="M85.4665 41.0093C86.0241 41.0093 86.4068 40.7495 86.6801 40.4573V40.9299H87.2377V38.2385C87.2377 37.3438 86.7129 36.9902 85.8747 36.9902C85.3681 36.9902 84.909 37.1129 84.5664 37.2969L84.7741 37.7443C85.0948 37.5603 85.4264 37.4484 85.8346 37.4484C86.4068 37.4484 86.6801 37.7262 86.6801 38.3035V38.758C86.4505 38.6318 86.1006 38.5344 85.7107 38.5344C84.9381 38.5344 84.2129 38.9024 84.2129 39.7682C84.2129 40.699 84.8543 41.0021 85.4629 41.0021L85.4665 41.0093ZM85.6815 38.9781C86.1553 38.9781 86.4323 39.0647 86.6837 39.2018V39.9847C86.4468 40.3058 86.0678 40.5619 85.5649 40.5619C85.0912 40.5619 84.7668 40.313 84.7668 39.7394C84.7668 39.2559 85.113 38.9817 85.6815 38.9817V38.9781Z" fill="white"/>
<path d="M92.828 38.6718V40.9302H93.3856V38.5816C93.3856 37.4559 92.89 36.9941 92.0955 36.9941C91.465 36.9941 91.1443 37.2864 90.9184 37.6544C90.7325 37.2864 90.4009 36.9941 89.8506 36.9941C89.3878 36.9941 89.0634 37.2142 88.863 37.5461V37.0771H88.3091V40.9338H88.863V38.6754C88.863 37.8203 89.1983 37.4704 89.734 37.4704C90.2697 37.4704 90.5758 37.7915 90.5758 38.6754V40.9338H91.1298V38.6754C91.1298 37.8203 91.4687 37.4704 92.0008 37.4704C92.562 37.4704 92.8389 37.7915 92.8389 38.6754L92.828 38.6718Z" fill="white"/>
<path d="M44.4643 45.6713C43.422 45.3033 43.2325 45.0616 43.2325 44.6358C43.2325 44.2101 43.5314 43.8818 44.242 43.8818C44.7631 43.8818 45.113 44.0478 45.4884 44.358L45.8601 43.9107C45.4228 43.5679 44.9745 43.3623 44.2785 43.3623C43.3054 43.3623 42.6531 43.8457 42.6531 44.6755C42.6531 45.4187 43.0321 45.7759 44.1545 46.1728C45.1057 46.5155 45.3936 46.7825 45.3936 47.2623C45.3936 47.8035 44.9636 48.1426 44.2712 48.1426C43.7355 48.1426 43.2836 47.8973 42.89 47.5257L42.5073 47.9514C42.9155 48.3627 43.5459 48.6621 44.2529 48.6621C45.3353 48.6621 45.9694 48.038 45.9694 47.2298C45.9694 46.4217 45.6159 46.0826 44.468 45.6713H44.4643Z" fill="white"/>
<path d="M48.3345 45.1224C48.7281 45.1224 48.9868 45.2595 49.2674 45.5121L49.6027 45.1008C49.2966 44.8338 48.8921 44.6426 48.3709 44.6426C47.5546 44.6426 46.6909 45.2451 46.6909 46.6701C46.6909 48.0158 47.4744 48.658 48.3309 48.658C48.8775 48.658 49.2565 48.4524 49.5845 48.1205L49.2492 47.7705C48.9832 48.0267 48.7317 48.1782 48.3527 48.1782C47.6639 48.1782 47.2521 47.5685 47.2521 46.6196C47.2521 45.6708 47.7223 45.1152 48.3309 45.1152L48.3345 45.1224Z" fill="white"/>
<path d="M51.9827 44.6458C51.4944 44.6458 51.1263 44.8731 50.904 45.1978V43.3867H50.3501V48.5891H50.904V46.3307C50.904 45.4864 51.3304 45.1257 51.8698 45.1257C52.4966 45.1257 52.7918 45.4973 52.7918 46.3307V48.5891H53.3494V46.2332C53.3494 45.1257 52.8064 44.6458 51.9827 44.6458Z" fill="white"/>
<path d="M55.8347 44.6465C54.8872 44.6465 54.1328 45.35 54.1328 46.6596C54.1328 47.9692 54.858 48.6655 55.8055 48.6655C56.7531 48.6655 57.5147 47.9404 57.5147 46.6308C57.5147 45.3211 56.7822 44.6465 55.8347 44.6465ZM55.8238 48.1857C55.1459 48.1857 54.6904 47.659 54.6904 46.6452C54.6904 45.6314 55.1459 45.1263 55.8238 45.1263C56.5016 45.1263 56.9571 45.6314 56.9571 46.6452C56.9571 47.659 56.498 48.1857 55.8238 48.1857Z" fill="white"/>
<path d="M58.9101 43.3838H58.3525V48.5862H58.9101V43.3838Z" fill="white"/>
<path d="M61.4575 44.6465C60.9509 44.6465 60.4918 44.7728 60.1528 44.9568L60.3606 45.4077C60.6813 45.2237 61.0165 45.1119 61.4247 45.1119C61.9932 45.1119 62.2702 45.3933 62.2702 45.9633V46.4215C62.0406 46.2952 61.6907 46.1978 61.3008 46.1978C60.5282 46.1978 59.8066 46.5658 59.8066 47.4353C59.8066 48.3661 60.4444 48.6655 61.053 48.6655C61.6106 48.6655 61.9932 48.4094 62.2702 48.1172V48.5898H62.8278V45.902C62.8278 45 62.2993 44.6501 61.4611 44.6501L61.4575 44.6465ZM62.2665 47.6373C62.0333 47.9548 61.647 48.2146 61.1477 48.2146C60.674 48.2146 60.3533 47.9656 60.3533 47.392C60.3533 46.9049 60.6958 46.638 61.268 46.638C61.7418 46.638 62.0151 46.7173 62.2665 46.858V47.6373Z" fill="white"/>
<path d="M64.4423 45.2051V44.7216H63.8848V48.582H64.4423V46.3163C64.4423 45.5839 64.7412 45.1474 65.2878 45.1474C65.5502 45.1474 65.7178 45.2051 65.8745 45.2953L66.0167 44.7361C65.8818 44.6784 65.6996 44.6387 65.4081 44.6387C64.9926 44.6387 64.6173 44.8876 64.446 45.2015L64.4423 45.2051Z" fill="white"/>
<path d="M68.1521 46.3421C67.4925 46.0463 67.2921 45.9128 67.2921 45.5917C67.2921 45.3139 67.5289 45.1155 67.9371 45.1155C68.3453 45.1155 68.6077 45.2273 68.9101 45.4618L69.2199 45.0578C68.9211 44.816 68.5093 44.6465 67.9735 44.6465C67.2666 44.6465 66.7527 45.0433 66.7527 45.6314C66.7527 46.2195 67.0807 46.4828 67.8606 46.8111C68.5493 47.1034 68.7789 47.2838 68.7789 47.5976C68.7789 47.9764 68.5275 48.1929 67.9954 48.1929C67.6055 48.1929 67.2447 48.0378 66.9313 47.7672L66.6069 48.1713C66.9787 48.4671 67.4451 48.6619 67.9808 48.6619C68.655 48.6619 69.3146 48.33 69.3146 47.576C69.3146 46.8833 68.8846 46.674 68.1485 46.3421H68.1521Z" fill="white"/>
<path d="M71.8585 44.6458C71.3628 44.6458 71.002 44.8731 70.7797 45.1978V43.3867H70.2222V48.5891H70.7797V46.3307C70.7797 45.4864 71.2025 45.1257 71.7455 45.1257C72.3687 45.1257 72.6638 45.4973 72.6638 46.3307V48.5891H73.2214V46.2332C73.2214 45.1257 72.6821 44.6458 71.8585 44.6458Z" fill="white"/>
<path d="M74.8762 44.7217H74.3223V48.582H74.8762V44.7217Z" fill="white"/>
<path d="M74.6101 43.25C74.3841 43.25 74.2056 43.4268 74.2056 43.6505C74.2056 43.8741 74.3841 44.0401 74.6101 44.0401C74.8178 44.0401 74.9964 43.8597 74.9964 43.6505C74.9964 43.4268 74.8178 43.25 74.6101 43.25Z" fill="white"/>
<path d="M77.7296 44.6465C77.2048 44.6465 76.8331 44.9062 76.5561 45.1985V44.7259H75.9985V50.004H76.5561V48.1532C76.8294 48.4599 77.1647 48.6655 77.6567 48.6655C78.4694 48.6655 79.1253 47.9584 79.1253 46.5947C79.1253 45.2309 78.5058 44.6465 77.7296 44.6465ZM77.6093 48.1857C77.1501 48.1857 76.7711 47.9295 76.5561 47.6048V45.6783C76.8294 45.3428 77.172 45.1227 77.5874 45.1227C78.207 45.1227 78.5787 45.6278 78.5787 46.5983C78.5787 47.6337 78.258 48.1821 77.613 48.1821L77.6093 48.1857Z" fill="white"/>
<path d="M82.0736 43.9609H84.5444V43.4414H81.4941V48.5861H82.0736V46.1869H83.4985V45.6674H82.0736V43.9609Z" fill="white"/>
<path d="M86.2353 44.6465C85.2878 44.6465 84.5298 45.35 84.5298 46.6596C84.5298 47.9692 85.2586 48.6655 86.2062 48.6655C87.1537 48.6655 87.9153 47.9404 87.9153 46.6308C87.9153 45.3211 87.1901 44.6465 86.2353 44.6465ZM86.2244 48.1857C85.5465 48.1857 85.0983 47.659 85.0983 46.6452C85.0983 45.6314 85.5502 45.1263 86.2244 45.1263C86.8986 45.1263 87.3614 45.6314 87.3614 46.6452C87.3614 47.659 86.9022 48.1857 86.2244 48.1857Z" fill="white"/>
<path d="M90.9874 46.9801C90.9874 47.8244 90.5683 48.1851 90.0253 48.1851C89.4021 48.1851 89.1033 47.8135 89.1033 46.9801V44.7217H88.5493V47.0739C88.5493 48.1815 89.0923 48.6614 89.9159 48.6614C90.4006 48.6614 90.7651 48.4377 90.9874 48.113V48.5856H91.5486V44.7253H90.9874V46.9837V46.9801Z" fill="white"/>
<path d="M94.1141 44.6462C93.6258 44.6462 93.2613 44.8735 93.039 45.1982V44.7256H92.4814V48.5859H93.039V46.3274C93.039 45.4832 93.4618 45.1224 94.0048 45.1224C94.6279 45.1224 94.9231 45.494 94.9231 46.3274V48.5859H95.4807V46.23C95.4807 45.1224 94.9377 44.6426 94.1141 44.6426V44.6462Z" fill="white"/>
<path d="M98.83 45.1624C98.553 44.8521 98.2214 44.6429 97.7294 44.6429C96.9131 44.6429 96.2607 45.3464 96.2607 46.7174C96.2607 48.0883 96.8766 48.6619 97.6565 48.6619C98.1849 48.6619 98.553 48.4058 98.8263 48.1136V48.5862H99.3839V43.3838H98.8263V45.1624H98.83ZM98.83 47.6301C98.553 47.9657 98.2141 48.1857 97.7986 48.1857C97.1827 48.1857 96.811 47.6806 96.811 46.7101C96.811 45.6711 97.1281 45.1227 97.7768 45.1227C98.2359 45.1227 98.6113 45.3789 98.83 45.7036V47.6265V47.6301Z" fill="white"/>
<path d="M101.746 44.6465C101.243 44.6465 100.783 44.7728 100.441 44.9568L100.645 45.4077C100.966 45.2237 101.301 45.1119 101.709 45.1119C102.278 45.1119 102.551 45.3933 102.551 45.9633V46.4215C102.321 46.2952 101.972 46.1978 101.578 46.1978C100.809 46.1978 100.087 46.5658 100.087 47.4353C100.087 48.3661 100.729 48.6655 101.337 48.6655C101.895 48.6655 102.278 48.4094 102.551 48.1172V48.5898H103.109V45.902C103.109 45 102.584 44.6501 101.742 44.6501L101.746 44.6465ZM102.555 47.6373C102.318 47.9548 101.942 48.2146 101.432 48.2146C100.962 48.2146 100.645 47.9656 100.645 47.392C100.645 46.9049 100.984 46.638 101.556 46.638C102.03 46.638 102.307 46.7173 102.555 46.858V47.6373Z" fill="white"/>
<path d="M104.887 43.3838H104.326V44.7223H103.845V45.1877H104.326V47.7889C104.326 48.4274 104.588 48.6583 105.073 48.6583C105.364 48.6583 105.572 48.615 105.787 48.5285L105.827 48.0522C105.649 48.1244 105.503 48.1605 105.277 48.1605C104.982 48.1605 104.887 48.0414 104.887 47.6987V45.1877H105.853V44.7223H104.887V43.3838Z" fill="white"/>
<path d="M107.117 43.25C106.887 43.25 106.705 43.4268 106.705 43.6505C106.705 43.8741 106.887 44.0401 107.117 44.0401C107.325 44.0401 107.5 43.8597 107.5 43.6505C107.5 43.4268 107.321 43.25 107.117 43.25Z" fill="white"/>
<path d="M107.383 44.7217H106.826V48.582H107.383V44.7217Z" fill="white"/>
<path d="M109.927 44.6465C108.979 44.6465 108.221 45.35 108.221 46.6596C108.221 47.9692 108.946 48.6655 109.898 48.6655C110.849 48.6655 111.603 47.9404 111.603 46.6308C111.603 45.3211 110.874 44.6465 109.927 44.6465ZM109.912 48.1857C109.238 48.1857 108.782 47.659 108.782 46.6452C108.782 45.6314 109.238 45.1263 109.912 45.1263C110.586 45.1263 111.049 45.6314 111.049 46.6452C111.049 47.659 110.59 48.1857 109.912 48.1857Z" fill="white"/>
<path d="M114.041 44.6462C113.553 44.6462 113.188 44.8735 112.962 45.1982V44.7256H112.405V48.5859H112.962V46.3274C112.962 45.4832 113.385 45.1224 113.928 45.1224C114.551 45.1224 114.85 45.494 114.85 46.3274V48.5859H115.404V46.23C115.404 45.1224 114.861 44.6426 114.041 44.6426V44.6462Z" fill="white"/>
<path d="M63.9464 25.6582C61.7088 25.6618 59.8647 27.3935 59.8647 29.5654C59.8647 31.7373 61.7088 33.451 63.9464 33.4582C66.2058 33.451 68.0316 31.7156 68.0316 29.5654C68.0316 27.4152 66.2058 25.6618 63.9464 25.6582ZM63.8917 31.676C62.7219 31.676 61.84 30.7307 61.84 29.5654C61.84 28.4001 62.7838 27.4368 63.95 27.4368C65.1162 27.4368 66.0272 28.3821 66.0272 29.5654C66.0272 30.7488 65.0724 31.676 63.8953 31.676H63.8917Z" fill="white"/>
<path d="M45.2183 22.9704C45.8415 23.5801 46.5558 24.114 47.2591 24.4568L47.332 24.4964L48.5383 23.0858L48.4217 23.0209C47.2773 22.4076 46.3809 21.6319 45.7941 20.6542C45.211 19.6909 44.9122 18.5725 44.9122 17.234V15.9785H42.7548V17.1005C42.7548 18.5509 42.4231 19.6909 41.8 20.6903C41.1039 21.7978 40.0726 22.689 38.7533 23.5151L38.6367 23.5873L39.945 24.9294L40.0179 24.8897C40.7978 24.4712 41.625 23.8254 42.343 23.1039C42.9661 22.4725 43.5055 21.7978 43.8335 21.1593C44.1505 21.787 44.6352 22.4256 45.2183 22.974V22.9704Z" fill="white"/>
<path d="M42.8823 32.5347H51.9129V26.4268H42.8823V32.5347ZM44.9122 28.1513H49.883V30.8102H44.9122V28.1513Z" fill="white"/>
<path d="M72.9917 32.5347H83.203V26.4268H72.9917V32.5347ZM74.9997 28.1513H81.1987V30.8102H74.9997V28.1513Z" fill="white"/>
<path d="M51.9494 15.6182H49.9414V25.7271H51.9494V21.2535H54.3V19.4568H51.9494V15.6182Z" fill="white"/>
<path d="M93.5818 23.4861C94.2414 24.0525 94.9957 24.5287 95.7064 24.8354L95.7793 24.8678L96.8653 23.4139L96.7487 23.3562C95.7137 22.8331 94.7917 22.1837 94.1284 21.39C93.4542 20.5818 93.0533 19.6077 93.0533 18.4352V18.0925H96.0417V16.3535H87.9294V18.0925H90.9141V18.511C90.9141 19.5789 90.557 20.5746 89.963 21.4369C89.2669 22.4723 88.2501 23.3057 87.2625 23.8468L87.1313 23.9154L88.4652 25.2827L88.538 25.2467C89.256 24.8426 90.0504 24.2329 90.7283 23.5474C91.2713 22.9846 91.7596 22.3893 92.0584 21.794C92.4192 22.3713 92.9732 22.9485 93.5854 23.4861H93.5818Z" fill="white"/>
<path d="M108.104 28.1903H115.404V32.5305H117.43V26.4658H108.104V28.1903Z" fill="white"/>
<path d="M113.141 21.2386C113.141 20.2825 112.707 19.4022 112.066 18.7312H114.07V17.0103H110.244V15.1162H108.068V17.0103H104.15V18.7312H106.198C105.572 19.4022 105.138 20.2753 105.138 21.2386C105.138 23.3708 106.913 25.1025 109.132 25.1097C111.352 25.1025 113.137 23.3708 113.141 21.2386ZM107.073 21.1592C107.073 19.9795 108.079 18.9801 109.132 18.9801C110.185 18.9801 111.188 19.9831 111.191 21.1592C111.191 22.3209 110.185 23.3239 109.132 23.3275C108.075 23.3239 107.077 22.3209 107.073 21.1592Z" fill="white"/>
<path d="M117.43 15.6182H115.426V25.7632H117.43V21.8921H119.788V20.0954H117.43V15.6182Z" fill="white"/>
<path d="M100.422 15.6182H98.418V25.7632H100.422V21.2535H102.777V19.4568H100.422V15.6182Z" fill="white"/>
<path d="M66.3991 18.627H63.2432V20.4057H66.3991V26.0843H68.4071V15.6182H66.3991V18.627Z" fill="white"/>
<path d="M61.3005 23.2337C61.9273 23.8398 62.6598 24.3738 63.3595 24.7346L63.436 24.7779L64.6423 23.3672L64.5257 23.3023C63.3813 22.707 62.5031 21.9349 61.9127 20.9717C61.315 20.0156 61.0162 18.8539 61.0162 17.5154V15.9785H58.8551V17.3855C58.8551 18.8359 58.5271 19.9723 57.9185 20.9536C57.2261 22.0792 56.1729 22.9776 54.8537 23.7965L54.7407 23.8687L56.0563 25.2144L56.1219 25.1711C56.8981 24.749 57.7072 24.1393 58.4251 23.443C59.0738 22.8044 59.6131 22.1081 59.9411 21.4407C60.2509 22.0504 60.7247 22.6709 61.3005 23.2373V23.2337Z" fill="white"/>
<path d="M96.1185 25.6582C93.8809 25.6618 92.0368 27.3935 92.0332 29.5654C92.0368 31.7156 93.8772 33.451 96.1185 33.4582C98.3743 33.451 100.204 31.7156 100.204 29.5654C100.204 27.4152 98.3743 25.6618 96.1185 25.6582ZM96.0602 31.676C94.894 31.676 94.0048 30.7307 94.0048 29.5654C94.0048 28.4001 94.945 27.4368 96.1185 27.4368C97.2919 27.4368 98.1921 28.3821 98.1957 29.5654C98.1957 30.7271 97.2373 31.676 96.0602 31.676Z" fill="white"/>
<path d="M75.4369 21.4156H77.4449V16.2529H72.0259V17.9702H75.4369V21.4156Z" fill="white"/>
<path d="M81.4645 21.4156H83.4762V16.2529H78.0571V17.9702H81.4645V21.4156Z" fill="white"/>
<path d="M132.648 20.1892H130.961V15.8996H129.062V32.0984H130.961V22.1374H132.648V32.5314H134.616V15.6182H132.648V20.1892Z" fill="white"/>
<path d="M126.278 22.4291C125.826 21.4514 125.64 20.3582 125.64 19.0162V18.3776H127.918V16.5557H121.3V18.3776H123.651V19.0522C123.651 20.3222 123.483 21.3612 123.079 22.3245C122.608 23.4321 121.818 24.4278 120.557 25.4957L120.469 25.5751L121.716 26.7981L121.792 26.7404C122.419 26.2822 123.075 25.6184 123.622 24.9329C124.084 24.3556 124.474 23.7568 124.718 23.23C124.97 23.7423 125.364 24.3304 125.823 24.8788C126.355 25.521 126.956 26.1307 127.532 26.4951L127.608 26.5456L128.658 25.3045L128.574 25.2287C127.444 24.2546 126.745 23.3852 126.286 22.4255L126.278 22.4291Z" fill="white"/>
<path d="M70.3457 23.818H77.0111V25.7445H79.1868V23.818H85.9579V22.0898H70.3457V23.818Z" fill="white"/>
<path d="M146.049 23.266H139.263V18.1538H144.431V16.3535H137.229V25.0121H146.049V23.266Z" fill="white"/>
<path d="M142.212 27.1406H140.182V32.5306H149.675V30.7556H142.212V27.1406Z" fill="white"/>
<path d="M149.627 20.3007V15.6143H147.623V28.0935H149.627V22.0974H152V20.3007H149.627Z" fill="white"/>
<path d="M42.5693 10.3976L37.3689 8.26539L42.5693 6.1332L41.6436 3.92886L36.4468 6.06104L38.6006 0.912764L36.3703 0L34.2202 5.14828L32.0664 0L29.8361 0.912764L31.9899 6.06104L26.7931 3.92886L25.8711 6.1332L31.0679 8.26539L25.8711 10.3976L26.7931 12.6019L31.9899 10.4697L29.8361 15.618L32.0664 16.5308L34.2202 11.3861L36.3703 16.5308L38.6006 15.6144L36.4468 10.4697L41.6436 12.6019L42.5693 10.3976Z" fill="white"/>
<path d="M8.92102 24.7602H12.3795V15.6182H0.553711V18.6992H8.92102V24.7602Z" fill="white"/>
<path d="M22.4122 24.7602H25.8707V15.6182H14.0449V18.6992H22.4122V24.7602Z" fill="white"/>
<path d="M0 29.4902H22.4124V34.1983H25.8709V26.4092H0V29.4902Z" fill="white"/>
<path d="M8.36719 48.5862H25.8707V35.7822H8.36719V48.5862ZM11.822 38.8669H22.4123V45.5088H11.822V38.8669Z" fill="white"/>
</g>
<defs>
<clipPath id="clip0_44_72">
<rect width="152" height="50" fill="white"/>
</clipPath>
</defs>
</svg>
