<svg width="175" height="40" viewBox="0 0 175 40" fill="none" xmlns="http://www.w3.org/2000/svg">
<g clip-path="url(#clip0_46_3418)">
<path d="M53.4708 31.663C53.4708 31.663 55.104 25.0985 57.2757 18.0762C55.0151 16.1035 52.0211 14.8994 48.7377 14.8994C45.9786 14.8994 43.4258 15.7512 41.3372 17.1939C41.6323 23.603 41.489 31.7712 40.2628 34.4042C40.0336 34.898 39.79 35.3641 39.5293 35.8053C41.85 38.1497 45.1162 39.6119 48.7348 39.6119C51.1272 39.6119 53.362 38.9738 55.2759 37.864C52.1987 36.0744 53.4708 31.663 53.4708 31.663Z" fill="#6DA13C"/>
<path d="M18.5649 30.7495C18.3041 27.0899 18.6136 21.0637 19.1035 16.1944C18.8113 15.6812 18.5247 15.24 18.2497 14.9015C15.7972 11.8718 11.2675 10.3208 8.06141 14.9015C4.85537 19.4822 1.01901 32.5751 1.01901 32.5751C1.01901 32.5751 -2.1899 37.7523 2.78104 39.0314C7.74912 40.3104 19.1321 40.2494 22.215 39.0314C22.5215 38.9093 22.8052 38.7817 23.0716 38.6513C20.2495 37.2612 18.8514 34.7337 18.5677 30.7467L18.5649 30.7495Z" fill="#446A37"/>
<path d="M41.3367 17.1936C41.222 14.7076 41.0415 12.488 40.8295 10.9565C40.076 5.47408 38.377 3.28223 30.137 3.22119C21.897 3.16015 20.2639 8.88395 20.2639 8.88395C19.8771 9.96045 19.4473 12.796 19.1035 16.192C21.4443 20.2927 24.2807 29.3265 25.232 32.5754C26.1946 35.8632 25.4698 37.4752 23.0688 38.6516C24.6475 39.4284 26.6674 39.8502 29.1944 39.9667C35.2856 40.2497 37.8498 38.6127 39.5288 35.8022C37.3312 33.5826 35.9761 30.5722 35.9761 27.2539C35.9761 23.1033 38.0934 19.4326 41.3367 17.1908V17.1936Z" fill="#A4B648"/>
<path d="M41.3372 17.1934C38.0939 19.4324 35.9766 23.103 35.9766 27.2565C35.9766 30.5748 37.3289 33.5851 39.5293 35.8047C39.7929 35.3664 40.0335 34.8975 40.2627 34.4036C41.4861 31.7706 41.6323 23.6025 41.3372 17.1934Z" fill="#538435"/>
<path d="M25.2325 32.5758C24.2813 29.3297 21.4449 20.2931 19.1041 16.1924C18.6141 21.0616 18.3047 27.0879 18.5654 30.7474C18.8491 34.7316 20.2444 37.262 23.0694 38.652C25.4703 37.4756 26.1952 35.8636 25.2325 32.5758Z" fill="#39582C"/>
<path d="M80.2629 31.357C79.9478 29.4703 74.9797 9.24975 73.3437 5.59573C71.7078 1.94171 67.8084 -3.17447 63.5336 2.61036C61.5281 5.32383 59.193 11.8772 57.2763 18.0754C59.8663 20.3367 61.4966 23.6106 61.4966 27.2535C61.4966 31.7621 59.0011 35.7046 55.2793 37.8632C55.689 38.1018 56.1703 38.2932 56.7434 38.4209C61.6484 39.5168 73.7248 40.7348 78.0625 38.9092C82.4031 37.0808 80.5781 33.2464 80.2629 31.357Z" fill="#6A8238"/>
<path d="M61.4928 27.2542C61.4928 23.6113 59.8625 20.3374 57.2725 18.0762C55.1007 25.0984 53.4676 31.6629 53.4676 31.6629C53.4676 31.6629 52.1955 36.0744 55.2726 37.8639C58.9973 35.7054 61.4899 31.7628 61.4899 27.2542H61.4928Z" fill="#456A37"/>
<path d="M91.2852 17.0384C90.3483 17.7015 89.294 18.076 88.125 18.162V15.049C89.314 14.8049 90.248 13.9753 90.9328 12.5631C91.6176 11.1509 91.9585 9.31137 91.9585 7.0446L95.1989 7.15003C95.1989 8.50954 95.0643 9.86904 94.7949 11.2313L99.1442 15.3903L96.9839 17.6127L93.6088 14.3443C92.9957 15.4791 92.2221 16.3753 91.2852 17.0384ZM105.316 19.7185C106.98 20.39 107.814 21.4581 107.814 22.9231C107.814 24.388 106.98 25.4285 105.316 26.0999C103.651 26.7713 101.439 27.107 98.6857 27.107C95.9324 27.107 93.7463 26.7713 92.0817 26.0999C90.4171 25.4285 89.5833 24.3686 89.5833 22.9231C89.5833 21.4776 90.4171 20.39 92.0817 19.7185C93.7463 19.0471 95.9496 18.7114 98.6857 18.7114C101.422 18.7114 103.651 19.0471 105.316 19.7185ZM102.657 24.0218C103.682 23.7943 104.195 23.428 104.195 22.9231C104.195 22.4181 103.685 22.0519 102.668 21.8244C101.651 21.5969 100.322 21.4831 98.6857 21.4831C97.0498 21.4831 95.7519 21.5969 94.7434 21.8244C93.7349 22.0519 93.2306 22.4181 93.2306 22.9231C93.2306 23.428 93.7377 23.7943 94.7577 24.0218C95.7748 24.2493 97.0842 24.363 98.6886 24.363C100.293 24.363 101.631 24.2493 102.66 24.0218H102.657ZM98.9837 17.9012V6.94194H102.17V10.1853H104.41V6.86426H107.596V18.556H104.41V13.3788H102.17V17.904H98.9837V17.9012Z" fill="white"/>
<path d="M110.217 17.0132V7.17762H121.749V17.0105H110.217V17.0132ZM126.327 19.391C127.937 20.0874 128.745 21.1944 128.745 22.7121C128.745 24.2297 127.94 25.3617 126.327 26.0609C124.717 26.7573 122.56 27.1069 119.858 27.1069C117.156 27.1069 115.033 26.7573 113.429 26.0609C111.827 25.3645 111.025 24.2464 111.025 22.7121C111.025 21.1778 111.827 20.0874 113.429 19.391C115.03 18.6946 117.173 18.345 119.858 18.345C122.542 18.345 124.714 18.6946 126.327 19.391ZM113.566 10.0548V14.1361H118.4V10.0548H113.566ZM123.628 23.9301C124.591 23.6609 125.072 23.2559 125.072 22.7148C125.072 22.1738 124.591 21.7743 123.628 21.5107C122.666 21.2499 121.408 21.1195 119.861 21.1195C118.314 21.1195 117.087 21.2499 116.133 21.5107C115.179 21.7715 114.701 22.1738 114.701 22.7148C114.701 23.2559 115.179 23.6609 116.133 23.9301C117.087 24.202 118.331 24.3351 119.861 24.3351C121.391 24.3351 122.666 24.1992 123.628 23.9301ZM122.777 15.8868V12.9042H125.207V11.1257H122.777V8.14315H125.207V6.86133H128.556V17.926H125.207V15.8868H122.777Z" fill="white"/>
<path d="M142.762 25.7087C141.754 25.8585 140.674 25.9306 139.522 25.9306H130.961V22.6872H139.657C140.754 22.6872 141.794 22.6179 142.777 22.4792C143.756 22.3404 144.564 22.1296 145.195 21.8521V25.0678C144.582 25.348 143.771 25.5616 142.765 25.7087H142.762ZM140.994 7.88527C141.94 8.4263 142.679 9.18374 143.209 10.1604C143.739 11.137 144.006 12.2607 144.006 13.5342C144.006 14.8077 143.739 15.9369 143.209 16.9218C142.679 17.9068 141.94 18.6698 140.994 19.2108C140.049 19.7518 138.983 20.021 137.794 20.021C136.605 20.021 135.508 19.7518 134.554 19.2108C133.6 18.6698 132.858 17.9068 132.325 16.9218C131.795 15.9369 131.528 14.8077 131.528 13.5342C131.528 12.2607 131.795 11.137 132.325 10.1604C132.855 9.18374 133.597 8.4263 134.554 7.88527C135.508 7.34425 136.588 7.07512 137.794 7.07512C139 7.07512 140.049 7.34702 140.994 7.88527ZM135.645 11.1398C135.115 11.7751 134.849 12.5742 134.849 13.5342C134.849 14.4941 135.115 15.3348 135.645 15.9535C136.175 16.5722 136.892 16.883 137.791 16.883C138.691 16.883 139.384 16.5695 139.926 15.9424C140.467 15.3154 140.737 14.5136 140.737 13.5369C140.737 12.5603 140.467 11.7807 139.926 11.1425C139.387 10.5072 138.674 10.1881 137.791 10.1881C136.909 10.1881 136.175 10.5072 135.645 11.1425V11.1398ZM146.49 26.9517V6.86426H149.865V26.9517H146.49Z" fill="white"/>
<path d="M163.992 19.3407H171.015V21.9294H167.746V24.3099H171.23V26.8985H153.349V24.3099H156.807V21.9294H153.566V19.3407H160.589V17.8758H152.352V15.1818H172.23V17.8758H163.992V19.3407ZM158.09 13.3645C156.48 13.9305 154.773 14.2329 152.973 14.2662V11.4667C154.251 11.414 155.495 11.1698 156.701 10.7342C157.907 10.2986 158.924 9.69657 159.752 8.93081C160.58 8.16505 161.093 7.29108 161.291 6.31445L164.749 6.91652C164.586 7.59627 164.345 8.24273 164.018 8.85312L171.851 11.7053L170.717 14.2939L162.182 11.0505C161.064 12.0272 159.701 12.7985 158.09 13.3645ZM160.13 21.9294V24.3099H164.425V21.9294H160.13Z" fill="white"/>
<path d="M90.2167 35.8771H93.6032V37.059H90.2167V39.8086H88.7812V32.5449H94.0416V33.7269H90.2167V35.8743V35.8771Z" fill="white"/>
<path d="M96.4536 39.4364C95.8691 39.1118 95.4078 38.6624 95.0726 38.0936C94.7374 37.5248 94.5684 36.8839 94.5684 36.1792C94.5684 35.4744 94.7374 34.8363 95.0726 34.2648C95.4078 33.6932 95.8691 33.2465 96.4536 32.9219C97.0381 32.5973 97.697 32.4336 98.4248 32.4336C99.1525 32.4336 99.8115 32.5973 100.402 32.9219C100.992 33.2465 101.453 33.6932 101.788 34.2592C102.124 34.8252 102.293 35.4661 102.293 36.1792C102.293 36.8922 102.124 37.5304 101.788 38.0991C101.453 38.6651 100.989 39.1118 100.402 39.4364C99.8143 39.7611 99.1525 39.9247 98.4248 39.9247C97.697 39.9247 97.0381 39.7611 96.4536 39.4364ZM99.6625 38.3516C100.029 38.1407 100.319 37.8439 100.531 37.4638C100.743 37.0837 100.846 36.6536 100.846 36.1764C100.846 35.6992 100.74 35.2691 100.531 34.889C100.321 34.5089 100.029 34.2121 99.6625 34.0012C99.2958 33.7903 98.8832 33.6849 98.4248 33.6849C97.9664 33.6849 97.5652 33.7903 97.1985 34.0012C96.8289 34.2121 96.5424 34.5089 96.3304 34.889C96.1184 35.2691 96.0152 35.6992 96.0152 36.1764C96.0152 36.6536 96.1212 37.0837 96.3304 37.4638C96.5424 37.8439 96.8289 38.1407 97.1985 38.3516C97.5652 38.5625 97.975 38.6679 98.4248 38.6679C98.8746 38.6679 99.2958 38.5625 99.6625 38.3516Z" fill="white"/>
<path d="M106.259 37.7138H104.715V39.8086H103.279V32.5449H106.259C106.881 32.5449 107.422 32.6476 107.884 32.8557C108.345 33.0638 108.697 33.3634 108.944 33.7546C109.19 34.1458 109.313 34.6064 109.313 35.1391C109.313 35.6718 109.181 36.1573 108.921 36.5513C108.66 36.9453 108.29 37.2394 107.812 37.4336L109.439 39.8086H107.898L106.451 37.7027C106.408 37.711 106.345 37.7138 106.259 37.7138ZM107.431 36.1712C107.72 35.927 107.863 35.5802 107.863 35.1391C107.863 34.6979 107.72 34.3539 107.434 34.1125C107.147 33.8711 106.729 33.7491 106.179 33.7491H104.712V36.5402H106.179C106.72 36.5402 107.139 36.4181 107.428 36.1712H107.431Z" fill="white"/>
<path d="M115.762 39.8086H110.361V32.5449H115.622V33.7269H111.785V35.5414H115.18V36.6928H111.785V38.6239H115.759V39.8058L115.762 39.8086Z" fill="white"/>
<path d="M117.501 39.6778C116.983 39.5169 116.57 39.306 116.264 39.0508L116.756 37.9521C117.057 38.1879 117.418 38.3766 117.839 38.5236C118.261 38.6679 118.685 38.7428 119.114 38.7428C119.622 38.7428 119.997 38.6596 120.246 38.4931C120.493 38.3266 120.616 38.1102 120.616 37.8383C120.616 37.6302 120.544 37.4638 120.401 37.3417C120.258 37.2168 120.08 37.1197 119.871 37.0448C119.659 36.9727 119.358 36.8867 118.965 36.7896C118.43 36.6647 117.991 36.5343 117.653 36.4011C117.315 36.2652 117.023 36.0571 116.779 35.7741C116.536 35.4911 116.416 35.111 116.416 34.6338C116.416 34.2259 116.524 33.8569 116.742 33.524C116.96 33.191 117.287 32.9275 117.722 32.7305C118.157 32.5335 118.69 32.4336 119.318 32.4336C119.768 32.4336 120.206 32.4919 120.63 32.6056C121.054 32.7194 121.424 32.8803 121.739 33.0884L121.289 34.1982C120.974 34.004 120.647 33.8597 120.309 33.7626C119.971 33.6655 119.639 33.6183 119.318 33.6183C118.816 33.6183 118.447 33.7071 118.203 33.8819C117.96 34.0567 117.839 34.2842 117.839 34.5616C117.839 34.7614 117.911 34.9279 118.054 35.0555C118.198 35.1831 118.378 35.283 118.602 35.3551C118.822 35.4273 119.123 35.5105 119.501 35.5993C120.051 35.7297 120.493 35.8629 120.825 35.9933C121.157 36.1237 121.444 36.3318 121.687 36.612C121.931 36.8922 122.051 37.2668 122.051 37.7384C122.051 38.1407 121.939 38.507 121.719 38.8371C121.498 39.1701 121.166 39.4337 120.722 39.6307C120.278 39.8276 119.739 39.9275 119.103 39.9275C118.553 39.9275 118.02 39.8471 117.501 39.6834V39.6778Z" fill="white"/>
<path d="M122.094 33.7491V32.5449H128.191V33.7491H125.864V39.8086H124.429V33.7491H122.094Z" fill="white"/>
<path d="M132.348 35.8771H135.734V37.059H132.348V39.8086H130.912V32.5449H136.172V33.7269H132.348V35.8743V35.8771Z" fill="white"/>
<path d="M138.583 39.4364C137.998 39.1118 137.537 38.6624 137.202 38.0936C136.866 37.5248 136.697 36.8839 136.697 36.1792C136.697 35.4744 136.866 34.8363 137.202 34.2648C137.537 33.6932 137.998 33.2465 138.583 32.9219C139.167 32.5973 139.826 32.4336 140.554 32.4336C141.281 32.4336 141.94 32.5973 142.531 32.9219C143.121 33.2465 143.582 33.6932 143.917 34.2592C144.253 34.8252 144.422 35.4661 144.422 36.1792C144.422 36.8922 144.253 37.5304 143.917 38.0991C143.582 38.6651 143.118 39.1118 142.531 39.4364C141.943 39.7611 141.281 39.9247 140.554 39.9247C139.826 39.9247 139.167 39.7611 138.583 39.4364ZM141.791 38.3516C142.158 38.1407 142.448 37.8439 142.66 37.4638C142.872 37.0837 142.975 36.6536 142.975 36.1764C142.975 35.6992 142.869 35.2691 142.66 34.889C142.45 34.5089 142.158 34.2121 141.791 34.0012C141.425 33.7903 141.012 33.6849 140.554 33.6849C140.095 33.6849 139.694 33.7903 139.327 34.0012C138.958 34.2121 138.671 34.5089 138.459 34.889C138.247 35.2691 138.144 35.6992 138.144 36.1764C138.144 36.6536 138.25 37.0837 138.459 37.4638C138.671 37.8439 138.958 38.1407 139.327 38.3516C139.694 38.5625 140.104 38.6679 140.554 38.6679C141.004 38.6679 141.425 38.5625 141.791 38.3516Z" fill="white"/>
<path d="M148.386 37.7138H146.842V39.8086H145.406V32.5449H148.386C149.008 32.5449 149.549 32.6476 150.01 32.8557C150.472 33.0638 150.824 33.3634 151.071 33.7546C151.317 34.1458 151.44 34.6064 151.44 35.1391C151.44 35.6718 151.308 36.1573 151.048 36.5513C150.787 36.9453 150.417 37.2394 149.939 37.4336L151.566 39.8086H150.025L148.578 37.7027C148.535 37.711 148.472 37.7138 148.386 37.7138ZM149.558 36.1712C149.847 35.927 149.99 35.5802 149.99 35.1391C149.99 34.6979 149.847 34.3539 149.561 34.1125C149.274 33.8711 148.856 33.7491 148.306 33.7491H146.839V36.5402H148.306C148.847 36.5402 149.266 36.4181 149.555 36.1712H149.558Z" fill="white"/>
<path d="M156.092 32.5449V38.6044H159.756V39.8086H154.656V32.5449H156.092Z" fill="white"/>
<path d="M161.887 32.5449V39.8086H160.451V32.5449H161.887Z" fill="white"/>
<path d="M164.801 35.8771H168.187V37.059H164.801V39.8086H163.365V32.5449H168.626V33.7269H164.801V35.8743V35.8771Z" fill="white"/>
<path d="M175 39.8086H169.6V32.5449H174.86V33.7269H171.024V35.5414H174.419V36.6928H171.024V38.6239H174.997V39.8058L175 39.8086Z" fill="white"/>
</g>
<defs>
<clipPath id="clip0_46_3418">
<rect width="175" height="40" fill="white"/>
</clipPath>
</defs>
</svg>
