<svg width="52" height="52" viewBox="0 0 52 52" fill="none" xmlns="http://www.w3.org/2000/svg">
<path d="M46.5693 12.3976L41.3689 10.2654L46.5693 8.1332L45.6436 5.92886L40.4468 8.06104L42.6006 2.91276L40.3703 2L38.2202 7.14828L36.0664 2L33.8361 2.91276L35.9899 8.06104L30.7931 5.92886L29.8711 8.1332L35.0679 10.2654L29.8711 12.3976L30.7931 14.6019L35.9899 12.4697L33.8361 17.618L36.0664 18.5308L38.2202 13.3861L40.3703 18.5308L42.6006 17.6144L40.4468 12.4697L45.6436 14.6019L46.5693 12.3976Z" fill="#00A1E6"/>
<path d="M12.921 26.7602H16.3795V17.6182H4.55371V20.6992H12.921V26.7602Z" fill="#00A1E6"/>
<path d="M26.4122 26.7602H29.8707V17.6182H18.0449V20.6992H26.4122V26.7602Z" fill="#00A1E6"/>
<path d="M4 31.4902H26.4124V36.1983H29.8709V28.4092H4V31.4902Z" fill="#00A1E6"/>
<path d="M12.3672 50.5862H29.8707V37.7822H12.3672V50.5862ZM15.822 40.8669H26.4123V47.5088H15.822V40.8669Z" fill="#00A1E6"/>
</svg>
