<svg width="39" height="39" viewBox="0 0 39 39" fill="none" xmlns="http://www.w3.org/2000/svg">
<path d="M37.7014 22.6706C37.4303 22.2666 37.0557 21.9313 36.5846 21.6727C36.7044 20.7112 36.6364 19.178 35.8019 17.0066C34.5968 13.8706 30.5845 12.5798 28.6626 12.1324L28.151 7.97629C28.1124 7.65814 27.9367 7.37332 27.6708 7.19254C27.4048 7.01175 27.0728 6.95519 26.7621 7.03599C23.8504 7.78641 19.9457 10.6315 19.7802 10.7517C19.7376 10.783 19.699 10.8174 19.6625 10.8527C18.7995 10.4265 17.8036 10.0558 16.6614 9.76194C13.0532 8.83477 8.00336 11.083 4.65304 15.1068C1.76161 18.5801 -0.153145 24.0512 1.78496 27.7862C3.35352 30.809 5.3891 31.4443 6.8206 31.4443C7.00842 31.4443 7.19827 31.4332 7.38507 31.41C10.4887 31.0333 13.1385 27.7538 13.8146 24.9319C14.7791 20.9001 18.235 14.7785 18.2696 14.7169C18.4157 14.4584 18.4533 14.1584 18.3731 13.8726C18.2929 13.5868 18.1061 13.3494 17.8462 13.203C17.3101 12.902 16.6279 13.0909 16.3243 13.6241C16.1761 13.8857 12.6816 20.0699 11.642 24.4168C11.1374 26.5247 9.19831 28.9517 7.11502 29.2042C5.81753 29.3617 4.69162 28.5426 3.77079 26.7671C2.47432 24.2674 3.59312 19.8638 6.37389 16.5238C9.15364 13.1858 13.3365 11.2032 16.104 11.9132C21.9478 13.4141 22.5559 16.8349 22.297 18.0267C21.7468 20.5597 24.0067 21.7373 25.3651 22.4464C25.4809 22.507 25.5936 22.5655 25.7022 22.6231C26.4464 23.0221 26.9987 23.5927 27.1418 24.1138C27.2454 24.4865 27.1672 24.8683 26.8981 25.3157C26.3002 26.3075 24.6768 28.1073 22.3894 28.5628C20.563 28.9264 18.6279 28.3709 16.6401 26.9125C16.4005 26.7368 16.105 26.6641 15.8106 26.7075C15.5152 26.7519 15.2553 26.9075 15.0786 27.1468C14.902 27.3852 14.8289 27.6791 14.8725 27.972C14.9162 28.2649 15.0736 28.5245 15.3142 28.7002C17.83 30.5464 20.3579 31.2332 22.827 30.7414C25.6809 30.1738 27.8352 28.0791 28.8129 26.459C29.4007 25.4834 29.5632 24.4966 29.2952 23.526C28.8555 21.9363 27.3763 20.998 26.7601 20.6678C26.6474 20.6072 26.5296 20.5456 26.4098 20.4829L26.3936 20.4749C24.9093 19.7012 24.3154 19.2548 24.4798 18.4973C24.8565 16.7622 24.2331 14.1645 21.692 12.1314C22.6036 11.5082 24.4301 10.3215 26.1032 9.61448L26.5438 13.1969C26.6037 13.6857 26.9875 14.0817 27.4768 14.1594C27.5286 14.1675 32.6475 15.0209 33.7155 17.8024C34.7257 20.4314 34.3277 21.6919 34.2678 21.8545C34.1034 22.1535 34.0912 22.5049 34.2353 22.8251C34.3805 23.1483 34.679 23.3745 35.0486 23.4442C35.2262 23.4806 35.674 23.6472 35.8455 23.9078C35.9004 23.9916 35.9663 24.1381 35.9004 24.4482C35.5217 26.2378 33.4627 28.0336 28.8231 27.7094C28.5256 27.6892 28.2383 27.7841 28.0129 27.9791C27.7875 28.174 27.6515 28.4437 27.6312 28.7396C27.5875 29.3506 28.0525 29.8829 28.6667 29.9263C29.083 29.9556 29.4931 29.9697 29.886 29.9697C35.142 29.9697 37.5684 27.3539 38.0862 24.9057C38.2608 24.0805 38.1288 23.3079 37.7034 22.6726L37.7014 22.6706Z" fill="#2D3E50"/>
<path d="M33.4555 21.4916C33.4555 20.5816 32.7113 19.8413 31.7966 19.8413C30.8819 19.8413 30.1377 20.5816 30.1377 21.4916C30.1377 22.4016 30.8819 23.1419 31.7966 23.1419C32.7113 23.1419 33.4555 22.4016 33.4555 21.4916Z" fill="#2D3E50"/>
<path d="M21.8998 20.9867C21.8998 20.0767 21.1556 19.3364 20.2409 19.3364C19.3262 19.3364 18.583 20.0767 18.583 20.9867C18.583 21.8967 19.3272 22.6371 20.2409 22.6371C21.1546 22.6371 21.8998 21.8967 21.8998 20.9867Z" fill="#2D3E50"/>
</svg>
