<svg width="182" height="41" viewBox="0 0 182 41" fill="none" xmlns="http://www.w3.org/2000/svg">
<path d="M60.7244 25.9278C60.2759 25.2594 59.6561 24.7046 58.8767 24.2768C59.0749 22.6859 58.9623 20.1492 57.5816 16.5564C55.5876 11.3677 48.9491 9.23208 45.7693 8.49179L44.9227 1.61532C44.8589 1.08893 44.5683 0.617683 44.1282 0.318561C43.6881 0.019438 43.1388 -0.0741422 42.6248 0.0595439C37.8072 1.30115 31.3467 6.00857 31.0729 6.20743C31.0024 6.25924 30.9385 6.31605 30.8781 6.37454C29.4502 5.66935 27.8024 5.05606 25.9126 4.56978C19.9427 3.03573 11.5874 6.75554 6.04415 13.4131C1.26013 19.1599 -1.90794 28.2122 1.29877 34.3918C3.89403 39.3933 7.26199 40.4444 9.63049 40.4444C9.94125 40.4444 10.2554 40.4261 10.5644 40.3876C15.6995 39.7643 20.0838 34.3383 21.2025 29.6693C22.7983 22.9984 28.5163 12.87 28.5734 12.7681C28.8153 12.3403 28.8774 11.844 28.7447 11.3711C28.612 10.8981 28.3029 10.5054 27.8729 10.2631C26.986 9.76515 25.8572 10.0776 25.3549 10.96C25.1097 11.3928 19.3279 21.6248 17.6078 28.8171C16.7729 32.3046 13.5645 36.3202 10.1176 36.738C7.97086 36.9987 6.10798 35.6434 4.58442 32.7057C2.43934 28.5698 4.29046 21.2839 8.89138 15.7576C13.4906 10.2347 20.4113 6.9544 24.9904 8.12917C34.6592 10.6124 35.6654 16.2723 35.2371 18.2442C34.3266 22.4352 38.0658 24.3837 40.3134 25.5568C40.5049 25.6571 40.6913 25.754 40.8711 25.8493C42.1024 26.5093 43.0162 27.4535 43.253 28.3158C43.4243 28.9324 43.295 29.5641 42.8499 30.3043C41.8605 31.9453 39.1745 34.9232 35.3899 35.6769C32.368 36.2784 29.1664 35.3594 25.8773 32.9463C25.4809 32.6555 24.9921 32.5352 24.505 32.6071C24.0161 32.6806 23.5861 32.938 23.2938 33.334C23.0016 33.7284 22.8806 34.2147 22.9528 34.6993C23.0251 35.1839 23.2854 35.6134 23.6835 35.9041C27.846 38.9588 32.0287 40.0952 36.1139 39.2814C40.8358 38.3422 44.4003 34.8764 46.0179 32.196C46.9905 30.5817 47.2593 28.9491 46.8158 27.3432C46.0885 24.7129 43.641 23.1605 42.6214 22.6141C42.435 22.5138 42.2401 22.4119 42.0419 22.3082L42.015 22.2949C39.5592 21.0148 38.5765 20.2762 38.8486 19.0229C39.4718 16.152 38.4404 11.854 34.2359 8.49012C35.7444 7.45907 38.7663 5.49555 41.5346 4.3258L42.2636 10.2531C42.3627 11.0619 42.9977 11.717 43.8073 11.8456C43.893 11.859 52.3625 13.2711 54.1296 17.8732C55.801 22.223 55.1425 24.3085 55.0434 24.5776C54.7713 25.0722 54.7511 25.6537 54.9896 26.1835C55.2299 26.7182 55.7237 27.0925 56.3351 27.2078C56.6291 27.268 57.3699 27.5437 57.6538 27.9749C57.7445 28.1136 57.8537 28.3559 57.7445 28.8689C57.1179 31.83 53.7113 34.8012 46.0347 34.2648C45.5425 34.2314 45.0672 34.3885 44.6943 34.711C44.3213 35.0335 44.0963 35.4797 44.0627 35.9693C43.9904 36.9803 44.7598 37.861 45.776 37.9328C46.4648 37.9813 47.1434 38.0047 47.7935 38.0047C56.4897 38.0047 60.5044 33.6766 61.3611 29.6259C61.65 28.2606 61.4316 26.9822 60.7278 25.9311L60.7244 25.9278Z" fill="white"/>
<path d="M53.6985 23.9776C53.6985 22.472 52.4672 21.2471 50.9537 21.2471C49.4403 21.2471 48.209 22.472 48.209 23.9776C48.209 25.4832 49.4403 26.7081 50.9537 26.7081C52.4672 26.7081 53.6985 25.4832 53.6985 23.9776Z" fill="white"/>
<path d="M34.5777 23.1422C34.5777 21.6365 33.3464 20.4116 31.8329 20.4116C30.3194 20.4116 29.0898 21.6365 29.0898 23.1422C29.0898 24.6478 30.3211 25.8727 31.8329 25.8727C33.3447 25.8727 34.5777 24.6478 34.5777 23.1422Z" fill="white"/>
<path d="M74.859 29.8344C74.859 31.3317 73.6882 31.97 72.4888 31.97C71.1786 31.97 70.0078 31.3049 70.0078 29.8344V12.4134C70.0078 11.4425 70.8158 10.9429 72.0151 10.9429H78.5965C83.3369 10.9429 87.2961 12.746 87.2961 17.4617V17.6288C87.2961 22.3446 83.5317 24.1761 78.8199 24.1761H74.8607V29.8344H74.859ZM78.8183 21.0128C81.0776 21.0128 82.4718 20.0135 82.4718 17.8227V17.435C82.4718 15.2994 80.7433 14.3552 78.4 14.3552H74.859V21.0128H78.8183Z" fill="white"/>
<path d="M100.93 28.5025C102.353 28.5025 103.132 29.3063 103.132 30.2772C103.132 31.0259 102.407 31.97 100.93 31.97H90.7522C89.442 31.97 88.6895 31.2765 88.6895 30.0566V12.6908C88.6895 11.6648 89.5814 10.9429 90.7808 10.9429H100.987C102.41 10.9429 103.134 11.7199 103.134 12.6908C103.134 13.4679 102.521 14.3552 100.987 14.3552H93.5138V19.7361H100.038C101.461 19.7361 102.101 20.4847 102.101 21.4556C102.101 22.2327 101.572 23.12 100.038 23.12H93.5138V28.5009H100.932L100.93 28.5025Z" fill="white"/>
<path d="M106.229 14.3268C104.667 14.3268 104.109 13.523 104.109 12.6073C104.109 11.7751 104.612 10.9429 106.229 10.9429H120.282C121.845 10.9429 122.402 11.7199 122.402 12.6908C122.402 13.523 121.9 14.3268 120.282 14.3268H115.71V29.8327C115.71 31.33 114.484 31.9683 113.311 31.9683C112.028 31.9683 110.857 31.2749 110.857 29.8327V14.3268H106.228H106.229Z" fill="white"/>
<path d="M123.675 27.913C123.431 25.789 124.112 23.4228 124.985 21.6364C125.761 19.9469 127.266 17.7261 128.965 16.6633C130.47 15.7459 132.119 15.6005 133.478 16.421C134.254 16.9039 134.547 17.6759 134.012 18.1589C133.527 18.6418 132.265 17.965 131.343 18.1104C130.47 18.2558 129.547 19.0278 128.82 19.8968C127.801 21.1518 127.024 22.746 126.588 24.387C126.248 25.642 126.102 26.4625 126.297 27.9597C126.492 29.4086 127.219 30.0837 128.822 29.843C130.471 29.6492 131.879 29.3116 133.335 28.4427C133.335 28.4427 134.355 27.9597 134.694 28.3458C135.422 29.1663 134.451 29.94 133.675 30.4697C132.606 31.2902 129.986 32.3045 128.627 32.3045C127.995 32.3045 127.219 32.3045 126.541 32.0639C124.406 31.2919 123.92 29.9884 123.677 27.9113L123.675 27.913Z" fill="white"/>
<path d="M138.283 28.2988C138.283 27.1407 138.574 25.4496 138.915 24.2431C139.74 21.4423 141.293 17.0491 143.865 16.1801C145.321 15.6972 146.778 17.146 147.117 18.5464C147.263 18.015 147.554 17.1945 147.749 16.8084C148.186 15.9395 148.476 15.4565 149.156 15.4565C149.884 15.4565 150.176 15.6019 150.321 16.1801C150.369 16.4692 150.369 17.0491 150.321 17.3382C150.077 18.6901 149.738 19.9935 149.689 21.4423C149.64 22.5051 149.98 23.7601 150.174 24.5806C150.369 25.3042 150.611 25.8841 150.902 26.5124C151.58 28.0097 152.795 29.4585 154.105 30.0367C154.591 30.2305 155.464 30.3742 155.464 31.0995C155.464 32.0169 154.639 31.92 154.105 31.8231C151.485 31.437 149.445 29.2646 148.233 26.8499C147.991 26.367 147.601 25.3042 147.505 24.8229C147.068 26.1264 146.146 28.155 145.612 29.024C144.592 30.665 142.943 32.9343 140.806 32.9343C140.369 32.9343 139.933 32.6937 139.545 32.4029C138.283 31.4855 138.283 29.7476 138.283 28.2988ZM140.613 28.8302C140.613 29.1193 140.564 30.5196 140.904 30.4712C141.728 30.3742 143.087 28.5394 143.768 27.4298C144.01 27.0438 144.98 25.3059 145.175 24.8714C145.563 24.0509 146 22.9396 146.244 21.9737C146.049 20.042 145.37 18.4494 144.787 18.4494C143.768 18.4494 142.311 22.216 141.875 23.3256C141.147 25.1605 140.662 26.9469 140.613 28.8302Z" fill="white"/>
<path d="M156.826 16.3255C156.584 15.8426 156.972 15.2627 157.116 15.119C157.407 14.9251 157.748 14.733 158.233 14.8767C158.621 15.0221 158.865 15.3596 159.155 15.7456C159.446 16.1801 160.175 17.5805 160.417 18.2088C161 17.2914 161.437 16.6146 161.776 16.2286C162.213 15.6972 162.552 15.3112 163.135 14.7797C164.252 13.7654 165.562 13.0418 166.824 12.6073C167.502 12.4135 168.036 12.2698 168.571 12.2213C169.59 12.1729 169.881 13.2357 169.298 13.5248C168.571 13.9108 167.939 14.2968 167.114 14.8282C165.853 15.6487 164.59 16.8569 163.425 18.304C162.698 19.173 162.018 20.2843 161.727 21.5392C161.581 22.3113 161.581 23.085 161.727 23.8086C161.969 25.2574 162.213 27.3813 162.31 28.0581C162.408 28.7332 162.601 29.6991 162.698 30.3759C162.796 30.9558 162.601 31.6793 161.581 31.6793C160.708 31.6793 160.368 30.8588 159.979 29.6991C159.688 28.7817 159.105 25.981 159.008 24.9182C158.91 24.3383 158.717 22.7458 158.717 22.5035C158.571 21.2 158.232 19.5574 157.892 18.5931C157.649 18.0133 157.261 17.2897 156.824 16.3238L156.826 16.3255Z" fill="white"/>
<path d="M169.735 29.6523C169.638 28.252 169.735 26.8516 170.074 25.3075C170.269 24.3901 170.56 23.4242 170.85 22.6037C172.209 18.7886 174.151 15.3128 177.062 15.6988C178.616 15.9879 179.392 17.3883 179.246 19.8999C179.051 22.1692 178.47 24.0525 177.111 25.1153C176.189 25.8389 175.703 26.0328 174.879 26.0328C174.539 26.0328 173.52 25.8874 172.839 25.5498C172.549 26.3703 172.208 27.9645 172.451 29.171C172.549 29.8462 173.13 29.9915 173.956 29.8462C175.655 29.5571 176.335 29.4601 178.324 28.9287C179.149 28.6881 180.071 28.4458 181.237 28.1082C182.013 28.0598 182.061 29.1226 181.964 29.4117C181.866 29.7008 181.769 29.7008 181.673 29.7977C180.314 30.5213 179.78 30.7151 178.082 31.295C176.626 31.7779 176.286 31.8748 175.364 32.067C174.491 32.2609 173.81 32.453 172.888 32.453C170.995 32.453 169.88 31.5356 169.733 29.6523H169.735ZM173.716 22.3129C173.619 22.602 173.521 22.9413 173.377 23.5195C173.716 23.7133 174.931 24.0509 175.561 23.7133C176.871 23.0382 177.308 21.0095 177.308 19.3201C177.308 18.6917 177.161 18.1135 176.531 18.1135C175.609 18.1135 174.882 19.417 174.541 20.189C174.395 20.4781 173.909 21.5894 173.716 22.3129Z" fill="white"/>
</svg>
