<svg width="215" height="248" viewBox="0 0 215 248" fill="none" xmlns="http://www.w3.org/2000/svg">
<path d="M42.8901 182.031H130.86C130.86 182.881 130.86 183.671 130.86 184.451C130.86 204.491 130.84 224.541 130.89 244.581C130.89 246.371 130.58 247.131 128.51 247.131C100.57 247.061 72.6401 247.081 44.7001 247.081H42.8901V182.041V182.031ZM113.33 197.711H60.1001V231.051H113.33V197.711Z" fill="#DBA843"/>
<path d="M184.06 53.2238C187.79 62.2638 191.32 70.7838 194.87 79.3838C191.13 80.9438 187.56 82.4338 183.74 84.0238C180.22 75.5638 176.71 67.1338 173.19 58.7038C172.98 58.6738 172.77 58.6537 172.56 58.6237C169.06 67.0337 165.56 75.4438 161.99 84.0038C158.29 82.4738 154.67 80.9738 150.84 79.3938C154.41 70.7538 157.93 62.2437 161.66 53.2137C152.67 56.9337 144.2 60.4338 135.5 64.0338C133.98 60.4138 132.48 56.8238 130.84 52.9238C139.47 49.3338 147.99 45.7838 156.99 42.0338C148.03 38.3138 139.53 34.7838 130.85 31.1738C132.38 27.4838 133.86 23.9338 135.46 20.0638C144.06 23.6038 152.51 27.0838 161.63 30.8438C157.9 21.8138 154.43 13.3838 150.84 4.70377C154.57 3.16377 158.17 1.66375 161.97 0.09375C165.57 8.75375 169.08 17.1837 172.84 26.2137C176.59 17.2037 180.1 8.77376 183.71 0.10376C187.48 1.65376 191.03 3.11375 194.86 4.68375C191.32 13.2437 187.84 21.6938 184.06 30.8438C193.07 27.1337 201.5 23.6738 210.2 20.0838C211.77 23.8138 213.28 27.4237 214.86 31.1837C206.19 34.7837 197.66 38.3238 188.68 42.0438C197.61 45.7538 206.14 49.3038 214.84 52.9138C213.26 56.7338 211.75 60.3538 210.22 64.0438C201.63 60.4938 193.15 56.9838 184.05 53.2238H184.06Z" fill="#DBA843"/>
<path d="M130.72 134.434V173.544H113.55V149.954H0.719727V134.434H130.72Z" fill="#DBA843"/>
<path d="M113.44 125.774V95.1539C112.36 95.1539 111.42 95.1539 110.49 95.1539C98.23 95.1539 85.98 95.1139 73.72 95.2039C71.68 95.2239 71.06 94.6139 71.14 92.6039C71.29 88.7939 71.23 84.9839 71.16 81.1739C71.14 79.8039 71.63 79.3339 73 79.3439C91.67 79.3739 110.34 79.3739 129.01 79.3539C130.12 79.3539 130.88 79.4939 130.88 80.8939C130.85 95.8039 130.86 110.714 130.86 125.784H113.44V125.774Z" fill="#DBA843"/>
<path d="M3.49023 79.4609H62.6302V125.801H45.6602V95.1909H3.49023V79.4609Z" fill="#DBA843"/>
</svg>
