<svg width="81" height="81" viewBox="0 0 81 81" fill="none" xmlns="http://www.w3.org/2000/svg">
<path d="M3.04354 59.3278C2.14124 59.9664 1.1258 60.3272 0 60.41V57.4119C1.14512 57.1768 2.04467 56.3778 2.70414 55.0177C3.36362 53.6577 3.69198 51.8861 3.69198 49.703L6.81277 49.8045C6.81277 51.1138 6.68309 52.4232 6.42371 53.7351L10.6124 57.7406L8.53184 59.8809L5.28135 56.7332C4.69086 57.8261 3.94583 58.6892 3.04354 59.3278ZM16.556 61.909C18.1591 62.5557 18.9621 63.5844 18.9621 64.9953C18.9621 66.4061 18.1591 67.4082 16.556 68.0548C14.9528 68.7015 12.8226 69.0248 10.1709 69.0248C7.51917 69.0248 5.4138 68.7015 3.81064 68.0548C2.20747 67.4082 1.4045 66.3874 1.4045 64.9953C1.4045 63.6031 2.20747 62.5557 3.81064 61.909C5.4138 61.2624 7.53572 60.9391 10.1709 60.9391C12.806 60.9391 14.9528 61.2624 16.556 61.909ZM13.9953 66.0534C14.9831 65.8343 15.4771 65.4816 15.4771 64.9953C15.4771 64.509 14.9859 64.1562 14.0063 63.9371C13.0268 63.718 11.7465 63.6085 10.1709 63.6085C8.5953 63.6085 7.34533 63.718 6.37404 63.9371C5.40276 64.1562 4.91712 64.509 4.91712 64.9953C4.91712 65.4816 5.40552 65.8343 6.38784 66.0534C7.36741 66.2725 8.62842 66.3821 10.1736 66.3821C11.7189 66.3821 13.0075 66.2725 13.9981 66.0534H13.9953ZM10.4578 60.1588V49.6041H13.5262V52.7278H15.684V49.5293H18.7524V60.7894H15.684V55.8033H13.5262V60.1615H10.4578V60.1588Z" fill="#5D4829"/>
<path d="M21.2754 59.3035V49.831H32.3817V59.3008H21.2754V59.3035ZM36.7911 61.5935C38.3418 62.2642 39.1199 63.3303 39.1199 64.7919C39.1199 66.2536 38.3446 67.3438 36.7911 68.0171C35.2403 68.6878 33.1626 69.0245 30.5605 69.0245C27.9585 69.0245 25.9138 68.6878 24.3686 68.0171C22.8261 67.3464 22.0535 66.2696 22.0535 64.7919C22.0535 63.3143 22.8261 62.2642 24.3686 61.5935C25.9111 60.9228 27.975 60.5861 30.5605 60.5861C33.146 60.5861 35.2376 60.9228 36.7911 61.5935ZM24.501 52.6019V56.5326H29.156V52.6019H24.501ZM34.1918 65.965C35.1189 65.7058 35.5825 65.3157 35.5825 64.7946C35.5825 64.2736 35.1189 63.8888 34.1918 63.6349C33.2647 63.3838 32.0533 63.2582 30.5633 63.2582C29.0732 63.2582 27.8923 63.3838 26.9734 63.6349C26.0545 63.8861 25.5937 64.2736 25.5937 64.7946C25.5937 65.3157 26.0545 65.7058 26.9734 65.965C27.8923 66.2268 29.0898 66.3551 30.5633 66.3551C32.0368 66.3551 33.2647 66.2242 34.1918 65.965ZM33.3723 58.2186V55.3462H35.7122V53.6333H33.3723V50.7609H35.7122V49.5264H38.9378V60.1826H35.7122V58.2186H33.3723Z" fill="#5D4829"/>
<path d="M52.6196 67.678C51.6483 67.8223 50.608 67.8918 49.4988 67.8918H41.2539V64.7682H49.6285C50.6853 64.7682 51.6869 64.7014 52.6334 64.5677C53.577 64.4341 54.3552 64.2311 54.9622 63.9639V67.0608C54.3717 67.3307 53.5909 67.5364 52.6223 67.678H52.6196ZM50.9171 50.5126C51.8276 51.0337 52.5395 51.7632 53.05 52.7037C53.5605 53.6443 53.8171 54.7265 53.8171 55.953C53.8171 57.1795 53.5605 58.267 53.05 59.2156C52.5395 60.1642 51.8276 60.899 50.9171 61.42C50.0065 61.9411 48.98 62.2003 47.8349 62.2003C46.6898 62.2003 45.633 61.9411 44.7141 61.42C43.7952 60.899 43.0806 60.1642 42.5673 59.2156C42.0569 58.267 41.8003 57.1795 41.8003 55.953C41.8003 54.7265 42.0569 53.6443 42.5673 52.7037C43.0778 51.7632 43.7925 51.0337 44.7141 50.5126C45.633 49.9916 46.6732 49.7324 47.8349 49.7324C48.9966 49.7324 50.0065 49.9942 50.9171 50.5126ZM45.7654 53.647C45.2549 54.2589 44.9983 55.0284 44.9983 55.953C44.9983 56.8775 45.2549 57.6871 45.7654 58.283C46.2759 58.8789 46.9657 59.1782 47.8321 59.1782C48.6986 59.1782 49.3663 58.8762 49.8878 58.2723C50.4093 57.6684 50.6687 56.8962 50.6687 55.9556C50.6687 55.0151 50.4093 54.2642 49.8878 53.6496C49.3691 53.0377 48.682 52.7304 47.8321 52.7304C46.9823 52.7304 46.2759 53.0377 45.7654 53.6496V53.647ZM56.2095 68.8751V49.5293H59.4599V68.8751H56.2095Z" fill="#5D4829"/>
<path d="M73.0666 61.5454H79.8297V64.0384H76.6813V66.3311H80.0367V68.8241H62.8157V66.3311H66.1462V64.0384H63.0254V61.5454H69.7885V60.1345H61.8555V57.54H80.9997V60.1345H73.0666V61.5454ZM67.3824 55.7897C65.8317 56.3349 64.1871 56.6261 62.4542 56.6582V53.962C63.6849 53.9113 64.8824 53.6761 66.0441 53.2566C67.2058 52.8371 68.1854 52.2573 68.9828 51.5198C69.7803 50.7823 70.2742 49.9406 70.4646 49L73.7951 49.5798C73.6378 50.2345 73.406 50.8571 73.0914 51.445L80.6354 54.1918L79.5427 56.6849L71.3227 53.5612C70.2466 54.5018 68.9331 55.2446 67.3824 55.7897ZM69.347 64.0384V66.3311H73.4833V64.0384H69.347Z" fill="#5D4829"/>
<path d="M53.4708 37.663C53.4708 37.663 55.104 31.0985 57.2757 24.0762C55.0151 22.1035 52.0211 20.8994 48.7377 20.8994C45.9786 20.8994 43.4258 21.7512 41.3372 23.1939C41.6323 29.603 41.489 37.7712 40.2628 40.4042C40.0336 40.898 39.79 41.3641 39.5293 41.8053C41.85 44.1497 45.1162 45.6119 48.7348 45.6119C51.1272 45.6119 53.362 44.9738 55.2759 43.864C52.1987 42.0744 53.4708 37.663 53.4708 37.663Z" fill="#6DA13C"/>
<path d="M18.5649 36.7495C18.3041 33.0899 18.6136 27.0637 19.1035 22.1944C18.8113 21.6812 18.5247 21.24 18.2497 20.9015C15.7972 17.8718 11.2675 16.3208 8.06141 20.9015C4.85537 25.4822 1.01901 38.5751 1.01901 38.5751C1.01901 38.5751 -2.1899 43.7523 2.78104 45.0314C7.74912 46.3104 19.1321 46.2494 22.215 45.0314C22.5215 44.9093 22.8052 44.7817 23.0716 44.6513C20.2495 43.2612 18.8514 40.7337 18.5677 36.7467L18.5649 36.7495Z" fill="#446A37"/>
<path d="M41.3367 23.1936C41.222 20.7076 41.0415 18.488 40.8295 16.9565C40.076 11.4741 38.377 9.28223 30.137 9.22119C21.897 9.16015 20.2639 14.8839 20.2639 14.8839C19.8771 15.9605 19.4473 18.796 19.1035 22.192C21.4443 26.2927 24.2807 35.3265 25.232 38.5754C26.1946 41.8632 25.4698 43.4752 23.0688 44.6516C24.6475 45.4284 26.6674 45.8502 29.1944 45.9667C35.2856 46.2497 37.8498 44.6127 39.5288 41.8022C37.3312 39.5826 35.9761 36.5722 35.9761 33.2539C35.9761 29.1033 38.0934 25.4326 41.3367 23.1908V23.1936Z" fill="#A4B648"/>
<path d="M41.3372 23.1934C38.0939 25.4324 35.9766 29.103 35.9766 33.2565C35.9766 36.5748 37.3289 39.5851 39.5293 41.8047C39.7929 41.3664 40.0335 40.8975 40.2627 40.4036C41.4861 37.7706 41.6323 29.6025 41.3372 23.1934Z" fill="#538435"/>
<path d="M25.2325 38.5758C24.2813 35.3297 21.4449 26.2931 19.1041 22.1924C18.6141 27.0616 18.3047 33.0879 18.5654 36.7474C18.8491 40.7316 20.2444 43.262 23.0694 44.652C25.4703 43.4756 26.1952 41.8636 25.2325 38.5758Z" fill="#39582C"/>
<path d="M80.2629 37.357C79.9478 35.4703 74.9797 15.2497 73.3437 11.5957C71.7078 7.94171 67.8084 2.82553 63.5336 8.61036C61.5281 11.3238 59.193 17.8772 57.2763 24.0754C59.8663 26.3367 61.4966 29.6106 61.4966 33.2535C61.4966 37.7621 59.0011 41.7046 55.2793 43.8632C55.689 44.1018 56.1703 44.2932 56.7434 44.4209C61.6484 45.5168 73.7248 46.7348 78.0625 44.9092C82.4031 43.0808 80.5781 39.2464 80.2629 37.357Z" fill="#6A8238"/>
<path d="M61.4928 33.2542C61.4928 29.6113 59.8625 26.3374 57.2725 24.0762C55.1007 31.0984 53.4676 37.6629 53.4676 37.6629C53.4676 37.6629 52.1955 42.0744 55.2726 43.8639C58.9973 41.7054 61.4899 37.7628 61.4899 33.2542H61.4928Z" fill="#456A37"/>
</svg>
